Hubballi-Regular-wire-97-44-LatinOnly.ufo
<glyph name="exclam" format="1">
  <advance width="327"/>
  <unicode hex="0021"/>
  <outline>
    <contour>
      <point x="113" y="276" type="curve" smooth="yes"/>
      <point x="120" y="543" type="line" smooth="yes"/>
      <point x="121" y="567"/>
      <point x="146" y="587"/>
      <point x="170" y="586" type="curve" smooth="yes"/>
      <point x="194" y="585"/>
      <point x="219" y="564"/>
      <point x="218" y="541" type="curve" smooth="yes"/>
      <point x="211" y="274" type="line" smooth="yes"/>
      <point x="210" y="250"/>
      <point x="185" y="230"/>
      <point x="161" y="231" type="curve" smooth="yes"/>
      <point x="137" y="232"/>
      <point x="112" y="253"/>
    </contour>
    <component base="period" xOffset="49"/>
    <component base="period" xOffset="49"/>
  </outline>
</glyph>
<glyph name="quotedbl" format="1">
  <advance width="404"/>
  <unicode hex="0022"/>
  <outline>
    <contour>
      <point x="185" y="570" type="curve" smooth="yes"/>
      <point x="145" y="401" type="line" smooth="yes"/>
      <point x="140" y="378"/>
      <point x="111" y="364"/>
      <point x="88" y="369" type="curve" smooth="yes"/>
      <point x="65" y="375"/>
      <point x="45" y="400"/>
      <point x="51" y="423" type="curve" smooth="yes"/>
      <point x="91" y="592" type="line" smooth="yes"/>
      <point x="96" y="615"/>
      <point x="125" y="629"/>
      <point x="148" y="624" type="curve" smooth="yes"/>
      <point x="171" y="618"/>
      <point x="191" y="593"/>
    </contour>
    <contour>
      <point x="344" y="570" type="curve" smooth="yes"/>
      <point x="304" y="401" type="line" smooth="yes"/>
      <point x="299" y="378"/>
      <point x="270" y="364"/>
      <point x="247" y="369" type="curve" smooth="yes"/>
      <point x="224" y="375"/>
      <point x="204" y="400"/>
      <point x="210" y="423" type="curve" smooth="yes"/>
      <point x="250" y="592" type="line" smooth="yes"/>
      <point x="255" y="615"/>
      <point x="284" y="629"/>
      <point x="307" y="624" type="curve" smooth="yes"/>
      <point x="330" y="618"/>
      <point x="350" y="593"/>
    </contour>
  </outline>
</glyph>
<glyph name="dollar" format="1">
  <advance width="574"/>
  <unicode hex="0024"/>
  <outline>
    <contour>
      <point x="422" y="439" type="curve" smooth="yes"/>
      <point x="373" y="457"/>
      <point x="337" y="466"/>
      <point x="265" y="466" type="curve" smooth="yes"/>
      <point x="210" y="466"/>
      <point x="158" y="445"/>
      <point x="158" y="410" type="curve" smooth="yes"/>
      <point x="158" y="374"/>
      <point x="195" y="343"/>
      <point x="296" y="327" type="curve" smooth="yes"/>
      <point x="481" y="293"/>
      <point x="525" y="223"/>
      <point x="525" y="147" type="curve" smooth="yes"/>
      <point x="525" y="70"/>
      <point x="468" y="-14"/>
      <point x="288" y="-14" type="curve" smooth="yes"/>
      <point x="213" y="-14"/>
      <point x="142" y="1"/>
      <point x="76" y="31" type="curve" smooth="yes"/>
      <point x="54" y="41"/>
      <point x="44" y="67"/>
      <point x="54" y="89" type="curve" smooth="yes"/>
      <point x="64" y="111"/>
      <point x="90" y="121"/>
      <point x="112" y="111" type="curve" smooth="yes"/>
      <point x="166" y="87"/>
      <point x="225" y="74"/>
      <point x="288" y="74" type="curve" smooth="yes"/>
      <point x="370" y="74"/>
      <point x="427" y="102"/>
      <point x="427" y="147" type="curve" smooth="yes"/>
      <point x="427" y="195"/>
      <point x="377" y="223"/>
      <point x="282" y="241" type="curve" smooth="yes"/>
      <point x="75" y="273"/>
      <point x="60" y="350"/>
      <point x="60" y="410" type="curve"/>
      <point x="60" y="477"/>
      <point x="124" y="554"/>
      <point x="265" y="554" type="curve" smooth="yes"/>
      <point x="351" y="554"/>
      <point x="393" y="543"/>
      <point x="452" y="523" type="curve" smooth="yes"/>
      <point x="474" y="515"/>
      <point x="486" y="489"/>
      <point x="479" y="466" type="curve" smooth="yes"/>
      <point x="471" y="444"/>
      <point x="445" y="432"/>
    </contour>
    <contour>
      <point x="333" y="598" type="curve" smooth="yes"/>
      <point x="333" y="-64" type="line" smooth="yes"/>
      <point x="333" y="-88"/>
      <point x="308" y="-108"/>
      <point x="284" y="-108" type="curve" smooth="yes"/>
      <point x="260" y="-108"/>
      <point x="235" y="-88"/>
      <point x="235" y="-64" type="curve" smooth="yes"/>
      <point x="235" y="598" type="line" smooth="yes"/>
      <point x="235" y="622"/>
      <point x="260" y="642"/>
      <point x="284" y="642" type="curve" smooth="yes"/>
      <point x="308" y="642"/>
      <point x="333" y="622"/>
    </contour>
  </outline>
</glyph>
<glyph name="percent" format="1">
  <advance width="814"/>
  <unicode hex="0025"/>
  <outline>
    <contour>
      <point x="203" y="559" type="curve" smooth="yes"/>
      <point x="283" y="559"/>
      <point x="360" y="494"/>
      <point x="360" y="384" type="curve" smooth="yes"/>
      <point x="360" y="281"/>
      <point x="295" y="210"/>
      <point x="203" y="210" type="curve" smooth="yes"/>
      <point x="119" y="210"/>
      <point x="45" y="282"/>
      <point x="45" y="383" type="curve"/>
      <point x="45" y="495"/>
      <point x="118" y="559"/>
    </contour>
    <contour>
      <point x="612" y="338" type="curve" smooth="yes"/>
      <point x="692" y="338"/>
      <point x="769" y="273"/>
      <point x="769" y="164" type="curve" smooth="yes"/>
      <point x="769" y="61"/>
      <point x="704" y="-11"/>
      <point x="612" y="-11" type="curve" smooth="yes"/>
      <point x="528" y="-11"/>
      <point x="454" y="62"/>
      <point x="454" y="163" type="curve" smooth="yes"/>
      <point x="454" y="273"/>
      <point x="527" y="338"/>
    </contour>
    <contour>
      <point x="590" y="484" type="curve" smooth="yes"/>
      <point x="307" y="19" type="line" smooth="yes"/>
      <point x="294" y="-1"/>
      <point x="264" y="-7"/>
      <point x="244" y="5" type="curve" smooth="yes"/>
      <point x="224" y="18"/>
      <point x="215" y="47"/>
      <point x="227" y="67" type="curve" smooth="yes"/>
      <point x="510" y="532" type="line" smooth="yes"/>
      <point x="523" y="552"/>
      <point x="553" y="558"/>
      <point x="573" y="546" type="curve" smooth="yes"/>
      <point x="593" y="533"/>
      <point x="602" y="504"/>
    </contour>
    <contour>
      <point x="203" y="471" type="curve" smooth="yes"/>
      <point x="160" y="471"/>
      <point x="143" y="425"/>
      <point x="143" y="383" type="curve" smooth="yes"/>
      <point x="143" y="344"/>
      <point x="161" y="298"/>
      <point x="203" y="298" type="curve" smooth="yes"/>
      <point x="249" y="298"/>
      <point x="262" y="345"/>
      <point x="262" y="384" type="curve" smooth="yes"/>
      <point x="262" y="426"/>
      <point x="243" y="471"/>
    </contour>
    <contour>
      <point x="612" y="250" type="curve" smooth="yes"/>
      <point x="569" y="250"/>
      <point x="552" y="205"/>
      <point x="552" y="163" type="curve" smooth="yes"/>
      <point x="552" y="124"/>
      <point x="570" y="77"/>
      <point x="612" y="77" type="curve" smooth="yes"/>
      <point x="658" y="77"/>
      <point x="671" y="125"/>
      <point x="671" y="164" type="curve" smooth="yes"/>
      <point x="671" y="205"/>
      <point x="652" y="250"/>
    </contour>
  </outline>
</glyph>
<glyph name="ampersand" format="1">
  <advance width="634"/>
  <unicode hex="0026"/>
  <outline>
    <contour>
      <point x="557" y="260" type="curve" smooth="yes"/>
      <point x="471" y="142" type="line" smooth="yes"/>
      <point x="383" y="24"/>
      <point x="317" y="-9"/>
      <point x="233" y="-9" type="curve" smooth="yes"/>
      <point x="118" y="-9"/>
      <point x="43" y="62"/>
      <point x="43" y="148" type="curve" smooth="yes"/>
      <point x="43" y="224"/>
      <point x="75" y="287"/>
      <point x="256" y="358" type="curve" smooth="yes"/>
      <point x="294" y="373"/>
      <point x="315" y="394"/>
      <point x="315" y="423" type="curve" smooth="yes"/>
      <point x="315" y="451"/>
      <point x="289" y="471"/>
      <point x="258" y="471" type="curve" smooth="yes"/>
      <point x="226" y="471"/>
      <point x="204" y="449"/>
      <point x="204" y="419" type="curve" smooth="yes"/>
      <point x="204" y="379"/>
      <point x="238" y="350"/>
      <point x="283" y="312" type="curve" smooth="yes"/>
      <point x="564" y="77" type="line" smooth="yes"/>
      <point x="582" y="62"/>
      <point x="584" y="33"/>
      <point x="569" y="15" type="curve" smooth="yes"/>
      <point x="554" y="-3"/>
      <point x="525" y="-6"/>
      <point x="506" y="9" type="curve" smooth="yes"/>
      <point x="225" y="244" type="line" smooth="yes"/>
      <point x="152" y="306"/>
      <point x="106" y="355"/>
      <point x="106" y="419" type="curve"/>
      <point x="106" y="505"/>
      <point x="172" y="559"/>
      <point x="258" y="559" type="curve" smooth="yes"/>
      <point x="347" y="559"/>
      <point x="413" y="499"/>
      <point x="413" y="423" type="curve" smooth="yes"/>
      <point x="413" y="362"/>
      <point x="376" y="311"/>
      <point x="288" y="276" type="curve" smooth="yes"/>
      <point x="177" y="233"/>
      <point x="141" y="198"/>
      <point x="141" y="148" type="curve" smooth="yes"/>
      <point x="141" y="106"/>
      <point x="182" y="79"/>
      <point x="233" y="79" type="curve" smooth="yes"/>
      <point x="295" y="79"/>
      <point x="337" y="114"/>
      <point x="397" y="196" type="curve" smooth="yes"/>
      <point x="483" y="314" type="line" smooth="yes"/>
      <point x="497" y="333"/>
      <point x="527" y="337"/>
      <point x="546" y="323" type="curve" smooth="yes"/>
      <point x="565" y="309"/>
      <point x="571" y="279"/>
    </contour>
  </outline>
</glyph>
<glyph name="parenleft" format="1">
  <advance width="335"/>
  <unicode hex="0028"/>
  <outline>
    <contour>
      <point x="266" y="565" type="curve" smooth="yes"/>
      <point x="198" y="493"/>
      <point x="146" y="381"/>
      <point x="146" y="266" type="curve" smooth="yes"/>
      <point x="146" y="153"/>
      <point x="194" y="47"/>
      <point x="265" y="-24" type="curve" smooth="yes"/>
      <point x="282" y="-41"/>
      <point x="281" y="-70"/>
      <point x="264" y="-87" type="curve" smooth="yes"/>
      <point x="247" y="-104"/>
      <point x="218" y="-105"/>
      <point x="201" y="-88" type="curve" smooth="yes"/>
      <point x="114" y="-1"/>
      <point x="48" y="125"/>
      <point x="48" y="266" type="curve"/>
      <point x="48" y="407"/>
      <point x="118" y="539"/>
      <point x="200" y="627" type="curve" smooth="yes"/>
      <point x="216" y="644"/>
      <point x="246" y="644"/>
      <point x="263" y="628" type="curve" smooth="yes"/>
      <point x="280" y="612"/>
      <point x="282" y="583"/>
    </contour>
  </outline>
</glyph>
<glyph name="asterisk" format="1">
  <advance width="431"/>
  <unicode hex="002A"/>
  <outline>
    <contour>
      <point x="257" y="548" type="curve" smooth="yes"/>
      <point x="257" y="310" type="line" smooth="yes"/>
      <point x="257" y="288"/>
      <point x="237" y="270"/>
      <point x="215" y="270" type="curve" smooth="yes"/>
      <point x="193" y="270"/>
      <point x="173" y="288"/>
      <point x="173" y="310" type="curve" smooth="yes"/>
      <point x="173" y="548" type="line" smooth="yes"/>
      <point x="173" y="570"/>
      <point x="193" y="588"/>
      <point x="215" y="588" type="curve" smooth="yes"/>
      <point x="237" y="588"/>
      <point x="257" y="570"/>
    </contour>
    <contour>
      <point x="119" y="527" type="curve" smooth="yes"/>
      <point x="352" y="396" type="line" smooth="yes"/>
      <point x="370" y="386"/>
      <point x="377" y="361"/>
      <point x="367" y="343" type="curve" smooth="yes"/>
      <point x="356" y="324"/>
      <point x="331" y="318"/>
      <point x="312" y="329" type="curve" smooth="yes"/>
      <point x="80" y="459" type="line" smooth="yes"/>
      <point x="62" y="469"/>
      <point x="54" y="493"/>
      <point x="64" y="511" type="curve" smooth="yes"/>
      <point x="75" y="530"/>
      <point x="100" y="538"/>
    </contour>
    <contour>
      <point x="80" y="396" type="curve" smooth="yes"/>
      <point x="313" y="524" type="line" smooth="yes"/>
      <point x="332" y="534"/>
      <point x="356" y="530"/>
      <point x="367" y="511" type="curve" smooth="yes"/>
      <point x="377" y="493"/>
      <point x="370" y="467"/>
      <point x="352" y="457" type="curve" smooth="yes"/>
      <point x="119" y="327" type="line" smooth="yes"/>
      <point x="100" y="316"/>
      <point x="75" y="324"/>
      <point x="64" y="343" type="curve" smooth="yes"/>
      <point x="54" y="361"/>
      <point x="62" y="386"/>
    </contour>
  </outline>
</glyph>
<glyph name="one" format="1">
  <advance width="328"/>
  <unicode hex="0031"/>
  <outline>
    <contour>
      <point x="254" y="502" type="curve" smooth="yes"/>
      <point x="254" y="43" type="line" smooth="yes"/>
      <point x="254" y="19"/>
      <point x="229" y="-1"/>
      <point x="205" y="-1" type="curve" smooth="yes"/>
      <point x="181" y="-1"/>
      <point x="156" y="19"/>
      <point x="156" y="43" type="curve" smooth="yes"/>
      <point x="156" y="502" type="line" smooth="yes"/>
      <point x="156" y="526"/>
      <point x="181" y="546"/>
      <point x="205" y="546" type="curve" smooth="yes"/>
      <point x="229" y="546"/>
      <point x="254" y="526"/>
    </contour>
    <contour>
      <point x="226" y="470" type="curve" smooth="yes"/>
      <point x="96" y="401" type="line" smooth="yes"/>
      <point x="75" y="390"/>
      <point x="47" y="398"/>
      <point x="36" y="419" type="curve" smooth="yes"/>
      <point x="25" y="440"/>
      <point x="33" y="468"/>
      <point x="54" y="479" type="curve" smooth="yes"/>
      <point x="184" y="548" type="line" smooth="yes"/>
      <point x="205" y="559"/>
      <point x="233" y="551"/>
      <point x="244" y="530" type="curve" smooth="yes"/>
      <point x="255" y="509"/>
      <point x="247" y="481"/>
    </contour>
  </outline>
</glyph>
<glyph name="four" format="1">
  <advance width="531"/>
  <unicode hex="0034"/>
  <outline>
    <contour>
      <point x="416" y="518" type="curve" smooth="yes"/>
      <point x="416" y="43" type="line" smooth="yes"/>
      <point x="416" y="19"/>
      <point x="391" y="-1"/>
      <point x="367" y="-1" type="curve" smooth="yes"/>
      <point x="343" y="-1"/>
      <point x="318" y="19"/>
      <point x="318" y="43" type="curve" smooth="yes"/>
      <point x="318" y="518" type="line" smooth="yes"/>
      <point x="318" y="542"/>
      <point x="343" y="562"/>
      <point x="367" y="562" type="curve" smooth="yes"/>
      <point x="391" y="562"/>
      <point x="416" y="542"/>
    </contour>
    <contour>
      <point x="394" y="481" type="curve" smooth="yes"/>
      <point x="95" y="133" type="line" smooth="yes"/>
      <point x="80" y="114"/>
      <point x="50" y="113"/>
      <point x="32" y="129" type="curve" smooth="yes"/>
      <point x="14" y="144"/>
      <point x="11" y="173"/>
      <point x="27" y="191" type="curve" smooth="yes"/>
      <point x="326" y="539" type="line" smooth="yes"/>
      <point x="341" y="558"/>
      <point x="371" y="559"/>
      <point x="389" y="543" type="curve" smooth="yes"/>
      <point x="407" y="528"/>
      <point x="410" y="499"/>
    </contour>
    <contour>
      <point x="71" y="206" type="curve" smooth="yes"/>
      <point x="475" y="206" type="line" smooth="yes"/>
      <point x="499" y="206"/>
      <point x="519" y="186"/>
      <point x="519" y="162" type="curve" smooth="yes"/>
      <point x="519" y="138"/>
      <point x="499" y="118"/>
      <point x="475" y="118" type="curve" smooth="yes"/>
      <point x="71" y="118" type="line" smooth="yes"/>
      <point x="47" y="118"/>
      <point x="27" y="138"/>
      <point x="27" y="162" type="curve" smooth="yes"/>
      <point x="27" y="186"/>
      <point x="47" y="206"/>
    </contour>
  </outline>
</glyph>
<glyph name="seven" format="1">
  <advance width="466"/>
  <unicode hex="0037"/>
  <outline>
    <contour>
      <point x="452" y="486" type="curve" smooth="yes"/>
      <point x="414" y="416"/>
      <point x="310" y="283"/>
      <point x="281" y="233" type="curve" smooth="yes"/>
      <point x="258" y="194"/>
      <point x="241" y="144"/>
      <point x="241" y="96" type="curve" smooth="yes"/>
      <point x="241" y="43" type="line" smooth="yes"/>
      <point x="241" y="19"/>
      <point x="216" y="-1"/>
      <point x="192" y="-1" type="curve" smooth="yes"/>
      <point x="168" y="-1"/>
      <point x="143" y="19"/>
      <point x="143" y="43" type="curve" smooth="yes"/>
      <point x="143" y="96" type="line" smooth="yes"/>
      <point x="143" y="160"/>
      <point x="170" y="226"/>
      <point x="201" y="281" type="curve" smooth="yes"/>
      <point x="230" y="329"/>
      <point x="332" y="462"/>
      <point x="370" y="530" type="curve" smooth="yes"/>
      <point x="382" y="551"/>
      <point x="411" y="558"/>
      <point x="432" y="547" type="curve" smooth="yes"/>
      <point x="453" y="535"/>
      <point x="463" y="506"/>
    </contour>
    <contour>
      <point x="404" y="465" type="curve" smooth="yes"/>
      <point x="61" y="465" type="line" smooth="yes"/>
      <point x="37" y="465"/>
      <point x="17" y="485"/>
      <point x="17" y="509" type="curve" smooth="yes"/>
      <point x="17" y="533"/>
      <point x="37" y="553"/>
      <point x="61" y="553" type="curve" smooth="yes"/>
      <point x="404" y="553" type="line" smooth="yes"/>
      <point x="428" y="553"/>
      <point x="448" y="533"/>
      <point x="448" y="509" type="curve" smooth="yes"/>
      <point x="448" y="485"/>
      <point x="428" y="465"/>
    </contour>
  </outline>
</glyph>
<glyph name="less" format="1">
  <advance width="530"/>
  <unicode hex="003C"/>
  <outline>
    <contour>
      <point x="87" y="321" type="curve" smooth="yes"/>
      <point x="397" y="455" type="line" smooth="yes"/>
      <point x="418" y="465"/>
      <point x="445" y="454"/>
      <point x="454" y="432" type="curve" smooth="yes"/>
      <point x="464" y="411"/>
      <point x="453" y="384"/>
      <point x="431" y="375" type="curve" smooth="yes"/>
      <point x="121" y="241" type="line" smooth="yes"/>
      <point x="100" y="231"/>
      <point x="73" y="242"/>
      <point x="64" y="264" type="curve" smooth="yes"/>
      <point x="54" y="285"/>
      <point x="65" y="312"/>
    </contour>
    <contour>
      <point x="402" y="97" type="curve" smooth="yes"/>
      <point x="80" y="237" type="line" smooth="yes"/>
      <point x="59" y="246"/>
      <point x="48" y="273"/>
      <point x="58" y="295" type="curve" smooth="yes"/>
      <point x="67" y="316"/>
      <point x="94" y="327"/>
      <point x="116" y="317" type="curve" smooth="yes"/>
      <point x="438" y="177" type="line" smooth="yes"/>
      <point x="459" y="168"/>
      <point x="470" y="141"/>
      <point x="460" y="119" type="curve" smooth="yes"/>
      <point x="451" y="98"/>
      <point x="424" y="87"/>
    </contour>
  </outline>
</glyph>
<glyph name="equal" format="1">
  <advance width="530"/>
  <unicode hex="003D"/>
  <outline>
    <contour>
      <point x="96" y="413" type="curve" smooth="yes"/>
      <point x="433" y="413" type="line" smooth="yes"/>
      <point x="457" y="413"/>
      <point x="477" y="393"/>
      <point x="477" y="369" type="curve" smooth="yes"/>
      <point x="477" y="345"/>
      <point x="457" y="325"/>
      <point x="433" y="325" type="curve" smooth="yes"/>
      <point x="96" y="325" type="line" smooth="yes"/>
      <point x="72" y="325"/>
      <point x="52" y="345"/>
      <point x="52" y="369" type="curve" smooth="yes"/>
      <point x="52" y="393"/>
      <point x="72" y="413"/>
    </contour>
    <contour>
      <point x="96" y="223" type="curve" smooth="yes"/>
      <point x="433" y="223" type="line" smooth="yes"/>
      <point x="457" y="223"/>
      <point x="477" y="203"/>
      <point x="477" y="179" type="curve" smooth="yes"/>
      <point x="477" y="155"/>
      <point x="457" y="135"/>
      <point x="433" y="135" type="curve" smooth="yes"/>
      <point x="96" y="135" type="line" smooth="yes"/>
      <point x="72" y="135"/>
      <point x="52" y="155"/>
      <point x="52" y="179" type="curve" smooth="yes"/>
      <point x="52" y="203"/>
      <point x="72" y="223"/>
    </contour>
  </outline>
</glyph>
<glyph name="question" format="1">
  <advance width="371"/>
  <unicode hex="003F"/>
  <outline>
    <contour>
      <point x="45" y="520" type="curve" smooth="yes"/>
      <point x="87" y="547"/>
      <point x="127" y="561"/>
      <point x="194" y="561" type="curve" smooth="yes"/>
      <point x="310" y="561"/>
      <point x="366" y="492"/>
      <point x="366" y="419" type="curve" smooth="yes"/>
      <point x="366" y="354"/>
      <point x="317" y="306"/>
      <point x="249" y="273" type="curve" smooth="yes"/>
      <point x="216" y="257"/>
      <point x="209" y="244"/>
      <point x="207" y="215" type="curve" smooth="yes"/>
      <point x="205" y="191"/>
      <point x="179" y="173"/>
      <point x="155" y="174" type="curve" smooth="yes"/>
      <point x="132" y="176"/>
      <point x="108" y="197"/>
      <point x="109" y="221" type="curve" smooth="yes"/>
      <point x="113" y="288"/>
      <point x="136" y="315"/>
      <point x="211" y="353" type="curve" smooth="yes"/>
      <point x="241" y="368"/>
      <point x="268" y="388"/>
      <point x="268" y="419" type="curve" smooth="yes"/>
      <point x="268" y="450"/>
      <point x="238" y="473"/>
      <point x="194" y="473" type="curve" smooth="yes"/>
      <point x="149" y="473"/>
      <point x="121" y="463"/>
      <point x="93" y="446" type="curve" smooth="yes"/>
      <point x="72" y="433"/>
      <point x="44" y="439"/>
      <point x="32" y="460" type="curve" smooth="yes"/>
      <point x="19" y="480"/>
      <point x="25" y="508"/>
    </contour>
    <component base="period" xOffset="50"/>
    <component base="period" xOffset="50"/>
  </outline>
</glyph>
<glyph name="G" format="1">
  <advance width="618"/>
  <unicode hex="0047"/>
  <outline>
    <contour>
      <point x="466" y="450" type="curve" smooth="yes"/>
      <point x="428" y="463"/>
      <point x="385" y="473"/>
      <point x="335" y="473" type="curve" smooth="yes"/>
      <point x="217" y="473"/>
      <point x="135" y="390"/>
      <point x="135" y="272" type="curve" smooth="yes"/>
      <point x="135" y="166"/>
      <point x="205" y="78"/>
      <point x="332" y="78" type="curve" smooth="yes"/>
      <point x="399" y="78"/>
      <point x="448" y="94"/>
      <point x="488" y="119" type="curve" smooth="yes"/>
      <point x="508" y="131"/>
      <point x="536" y="124"/>
      <point x="549" y="104" type="curve" smooth="yes"/>
      <point x="561" y="84"/>
      <point x="554" y="56"/>
      <point x="534" y="43" type="curve" smooth="yes"/>
      <point x="482" y="12"/>
      <point x="419" y="-10"/>
      <point x="332" y="-10" type="curve" smooth="yes"/>
      <point x="147" y="-10"/>
      <point x="37" y="114"/>
      <point x="37" y="272" type="curve"/>
      <point x="37" y="448"/>
      <point x="165" y="561"/>
      <point x="335" y="561" type="curve" smooth="yes"/>
      <point x="397" y="561"/>
      <point x="450" y="549"/>
      <point x="496" y="532" type="curve" smooth="yes"/>
      <point x="518" y="524"/>
      <point x="530" y="499"/>
      <point x="522" y="476" type="curve" smooth="yes"/>
      <point x="514" y="454"/>
      <point x="489" y="442"/>
    </contour>
    <contour>
      <point x="463" y="91" type="curve" smooth="yes"/>
      <point x="463" y="258" type="line" smooth="yes"/>
      <point x="463" y="282"/>
      <point x="488" y="302"/>
      <point x="512" y="302" type="curve" smooth="yes"/>
      <point x="536" y="302"/>
      <point x="561" y="282"/>
      <point x="561" y="258" type="curve" smooth="yes"/>
      <point x="561" y="91" type="line" smooth="yes"/>
      <point x="561" y="67"/>
      <point x="536" y="47"/>
      <point x="512" y="47" type="curve" smooth="yes"/>
      <point x="488" y="47"/>
      <point x="463" y="67"/>
    </contour>
    <contour>
      <point x="501" y="214" type="curve" smooth="yes"/>
      <point x="348" y="214" type="line" smooth="yes"/>
      <point x="324" y="214"/>
      <point x="304" y="234"/>
      <point x="304" y="258" type="curve" smooth="yes"/>
      <point x="304" y="282"/>
      <point x="324" y="302"/>
      <point x="348" y="302" type="curve" smooth="yes"/>
      <point x="501" y="302" type="line" smooth="yes"/>
      <point x="525" y="302"/>
      <point x="545" y="282"/>
      <point x="545" y="258" type="curve" smooth="yes"/>
      <point x="545" y="234"/>
      <point x="525" y="214"/>
    </contour>
  </outline>
</glyph>
<glyph name="H" format="1">
  <advance width="631"/>
  <unicode hex="0048"/>
  <outline>
    <contour>
      <point x="172" y="509" type="curve" smooth="yes"/>
      <point x="172" y="43" type="line" smooth="yes"/>
      <point x="172" y="19"/>
      <point x="147" y="-1"/>
      <point x="123" y="-1" type="curve" smooth="yes"/>
      <point x="99" y="-1"/>
      <point x="74" y="19"/>
      <point x="74" y="43" type="curve" smooth="yes"/>
      <point x="74" y="509" type="line" smooth="yes"/>
      <point x="74" y="533"/>
      <point x="99" y="553"/>
      <point x="123" y="553" type="curve" smooth="yes"/>
      <point x="147" y="553"/>
      <point x="172" y="533"/>
    </contour>
    <contour>
      <point x="557" y="509" type="curve" smooth="yes"/>
      <point x="557" y="43" type="line" smooth="yes"/>
      <point x="557" y="19"/>
      <point x="532" y="-1"/>
      <point x="508" y="-1" type="curve" smooth="yes"/>
      <point x="484" y="-1"/>
      <point x="459" y="19"/>
      <point x="459" y="43" type="curve" smooth="yes"/>
      <point x="459" y="509" type="line" smooth="yes"/>
      <point x="459" y="533"/>
      <point x="484" y="553"/>
      <point x="508" y="553" type="curve" smooth="yes"/>
      <point x="532" y="553"/>
      <point x="557" y="533"/>
    </contour>
    <contour>
      <point x="127" y="337" type="curve" smooth="yes"/>
      <point x="507" y="337" type="line" smooth="yes"/>
      <point x="531" y="337"/>
      <point x="551" y="317"/>
      <point x="551" y="293" type="curve" smooth="yes"/>
      <point x="551" y="269"/>
      <point x="531" y="249"/>
      <point x="507" y="249" type="curve" smooth="yes"/>
      <point x="127" y="249" type="line" smooth="yes"/>
      <point x="103" y="249"/>
      <point x="83" y="269"/>
      <point x="83" y="293" type="curve" smooth="yes"/>
      <point x="83" y="317"/>
      <point x="103" y="337"/>
    </contour>
  </outline>
</glyph>
<glyph name="I" format="1">
  <advance width="256"/>
  <unicode hex="0049"/>
  <outline>
    <contour>
      <point x="177" y="509" type="curve" smooth="yes"/>
      <point x="177" y="43" type="line" smooth="yes"/>
      <point x="177" y="19"/>
      <point x="152" y="-1"/>
      <point x="128" y="-1" type="curve" smooth="yes"/>
      <point x="104" y="-1"/>
      <point x="79" y="19"/>
      <point x="79" y="43" type="curve" smooth="yes"/>
      <point x="79" y="509" type="line" smooth="yes"/>
      <point x="79" y="533"/>
      <point x="104" y="553"/>
      <point x="128" y="553" type="curve" smooth="yes"/>
      <point x="152" y="553"/>
      <point x="177" y="533"/>
    </contour>
  </outline>
</glyph>
<glyph name="J" format="1">
  <advance width="389"/>
  <unicode hex="004A"/>
  <outline>
    <contour>
      <point x="88" y="93" type="curve" smooth="yes"/>
      <point x="111" y="83"/>
      <point x="136" y="78"/>
      <point x="160" y="78" type="curve" smooth="yes"/>
      <point x="214" y="78"/>
      <point x="229" y="123"/>
      <point x="229" y="179" type="curve" smooth="yes"/>
      <point x="229" y="508" type="line" smooth="yes"/>
      <point x="229" y="532"/>
      <point x="254" y="552"/>
      <point x="278" y="552" type="curve" smooth="yes"/>
      <point x="302" y="552"/>
      <point x="327" y="532"/>
      <point x="327" y="508" type="curve" smooth="yes"/>
      <point x="327" y="179" type="line" smooth="yes"/>
      <point x="327" y="43"/>
      <point x="262" y="-10"/>
      <point x="160" y="-10" type="curve" smooth="yes"/>
      <point x="124" y="-10"/>
      <point x="89" y="-3"/>
      <point x="54" y="11" type="curve" smooth="yes"/>
      <point x="32" y="20"/>
      <point x="21" y="47"/>
      <point x="30" y="69" type="curve" smooth="yes"/>
      <point x="39" y="91"/>
      <point x="66" y="102"/>
    </contour>
  </outline>
</glyph>
<glyph name="L" format="1">
  <advance width="459"/>
  <unicode hex="004C"/>
  <outline>
    <contour>
      <point x="172" y="509" type="curve" smooth="yes"/>
      <point x="172" y="43" type="line" smooth="yes"/>
      <point x="172" y="19"/>
      <point x="147" y="-1"/>
      <point x="123" y="-1" type="curve" smooth="yes"/>
      <point x="99" y="-1"/>
      <point x="74" y="19"/>
      <point x="74" y="43" type="curve" smooth="yes"/>
      <point x="74" y="509" type="line" smooth="yes"/>
      <point x="74" y="533"/>
      <point x="99" y="553"/>
      <point x="123" y="553" type="curve" smooth="yes"/>
      <point x="147" y="553"/>
      <point x="172" y="533"/>
    </contour>
    <contour>
      <point x="131" y="87" type="curve" smooth="yes"/>
      <point x="394" y="87" type="line" smooth="yes"/>
      <point x="418" y="87"/>
      <point x="438" y="67"/>
      <point x="438" y="43" type="curve" smooth="yes"/>
      <point x="438" y="19"/>
      <point x="418" y="-1"/>
      <point x="394" y="-1" type="curve" smooth="yes"/>
      <point x="131" y="-1" type="line" smooth="yes"/>
      <point x="107" y="-1"/>
      <point x="87" y="19"/>
      <point x="87" y="43" type="curve" smooth="yes"/>
      <point x="87" y="67"/>
      <point x="107" y="87"/>
    </contour>
  </outline>
</glyph>
<glyph name="N" format="1">
  <advance width="635"/>
  <unicode hex="004E"/>
  <outline>
    <contour>
      <point x="172" y="509" type="curve" smooth="yes"/>
      <point x="172" y="43" type="line" smooth="yes"/>
      <point x="172" y="19"/>
      <point x="147" y="-1"/>
      <point x="123" y="-1" type="curve" smooth="yes"/>
      <point x="99" y="-1"/>
      <point x="74" y="19"/>
      <point x="74" y="43" type="curve" smooth="yes"/>
      <point x="74" y="509" type="line" smooth="yes"/>
      <point x="74" y="533"/>
      <point x="99" y="553"/>
      <point x="123" y="553" type="curve" smooth="yes"/>
      <point x="147" y="553"/>
      <point x="172" y="533"/>
    </contour>
    <contour>
      <point x="561" y="509" type="curve" smooth="yes"/>
      <point x="561" y="43" type="line" smooth="yes"/>
      <point x="561" y="19"/>
      <point x="536" y="-1"/>
      <point x="512" y="-1" type="curve" smooth="yes"/>
      <point x="488" y="-1"/>
      <point x="463" y="19"/>
      <point x="463" y="43" type="curve" smooth="yes"/>
      <point x="463" y="509" type="line" smooth="yes"/>
      <point x="463" y="533"/>
      <point x="488" y="553"/>
      <point x="512" y="553" type="curve" smooth="yes"/>
      <point x="536" y="553"/>
      <point x="561" y="533"/>
    </contour>
    <contour>
      <point x="165" y="537" type="curve" smooth="yes"/>
      <point x="240" y="441"/>
      <point x="435" y="208"/>
      <point x="542" y="71" type="curve" smooth="yes"/>
      <point x="557" y="52"/>
      <point x="552" y="23"/>
      <point x="533" y="8" type="curve" smooth="yes"/>
      <point x="514" y="-6"/>
      <point x="485" y="-4"/>
      <point x="470" y="15" type="curve" smooth="yes"/>
      <point x="363" y="152"/>
      <point x="168" y="385"/>
      <point x="93" y="481" type="curve" smooth="yes"/>
      <point x="79" y="500"/>
      <point x="83" y="529"/>
      <point x="102" y="544" type="curve" smooth="yes"/>
      <point x="121" y="558"/>
      <point x="150" y="556"/>
    </contour>
  </outline>
</glyph>
<glyph name="O" format="1">
  <advance width="640"/>
  <unicode hex="004F"/>
  <outline>
    <contour>
      <point x="322" y="561" type="curve" smooth="yes"/>
      <point x="474" y="561"/>
      <point x="603" y="447"/>
      <point x="603" y="275" type="curve" smooth="yes"/>
      <point x="603" y="111"/>
      <point x="496" y="-10"/>
      <point x="322" y="-10" type="curve" smooth="yes"/>
      <point x="157" y="-10"/>
      <point x="37" y="113"/>
      <point x="37" y="272" type="curve"/>
      <point x="37" y="447"/>
      <point x="156" y="561"/>
    </contour>
    <contour>
      <point x="322" y="473" type="curve" smooth="yes"/>
      <point x="206" y="473"/>
      <point x="135" y="387"/>
      <point x="135" y="272" type="curve" smooth="yes"/>
      <point x="135" y="167"/>
      <point x="209" y="78"/>
      <point x="322" y="78" type="curve" smooth="yes"/>
      <point x="442" y="78"/>
      <point x="505" y="169"/>
      <point x="505" y="275" type="curve" smooth="yes"/>
      <point x="505" y="387"/>
      <point x="428" y="473"/>
    </contour>
  </outline>
</glyph>
<glyph name="P" format="1">
  <advance width="510"/>
  <unicode hex="0050"/>
  <outline>
    <contour>
      <point x="149" y="256" type="curve" smooth="yes"/>
      <point x="266" y="256" type="line" smooth="yes"/>
      <point x="346" y="256"/>
      <point x="388" y="302"/>
      <point x="388" y="361" type="curve" smooth="yes"/>
      <point x="388" y="422"/>
      <point x="337" y="465"/>
      <point x="266" y="465" type="curve" smooth="yes"/>
      <point x="123" y="465" type="line"/>
      <point x="172" y="509" type="line"/>
      <point x="172" y="43" type="line" smooth="yes"/>
      <point x="172" y="19"/>
      <point x="147" y="-1"/>
      <point x="123" y="-1" type="curve" smooth="yes"/>
      <point x="99" y="-1"/>
      <point x="74" y="19"/>
      <point x="74" y="43" type="curve" smooth="yes"/>
      <point x="74" y="509" type="line"/>
      <point x="74" y="533"/>
      <point x="96" y="553"/>
      <point x="123" y="553" type="curve" smooth="yes"/>
      <point x="266" y="553" type="line" smooth="yes"/>
      <point x="397" y="553"/>
      <point x="486" y="472"/>
      <point x="486" y="361" type="curve" smooth="yes"/>
      <point x="486" y="256"/>
      <point x="412" y="168"/>
      <point x="266" y="168" type="curve" smooth="yes"/>
      <point x="149" y="168" type="line" smooth="yes"/>
      <point x="125" y="168"/>
      <point x="105" y="188"/>
      <point x="105" y="212" type="curve" smooth="yes"/>
      <point x="105" y="236"/>
      <point x="125" y="256"/>
    </contour>
  </outline>
</glyph>
<glyph name="Q" format="1">
  <advance width="640"/>
  <unicode hex="0051"/>
  <outline>
    <contour>
      <point x="365" y="39" type="curve" smooth="yes"/>
      <point x="379" y="-15"/>
      <point x="432" y="-56"/>
      <point x="512" y="-56" type="curve" smooth="yes"/>
      <point x="536" y="-56"/>
      <point x="556" y="-76"/>
      <point x="556" y="-100" type="curve" smooth="yes"/>
      <point x="556" y="-124"/>
      <point x="536" y="-144"/>
      <point x="512" y="-144" type="curve" smooth="yes"/>
      <point x="380" y="-144"/>
      <point x="295" y="-73"/>
      <point x="271" y="13" type="curve" smooth="yes"/>
      <point x="265" y="36"/>
      <point x="284" y="62"/>
      <point x="306" y="68" type="curve" smooth="yes"/>
      <point x="329" y="75"/>
      <point x="358" y="62"/>
    </contour>
    <component base="O"/>
    <component base="O"/>
  </outline>
</glyph>
<glyph name="R" format="1">
  <advance width="541"/>
  <unicode hex="0052"/>
  <outline>
    <contour>
      <point x="139" y="278" type="curve" smooth="yes"/>
      <point x="270" y="278" type="line" smooth="yes"/>
      <point x="345" y="278"/>
      <point x="387" y="318"/>
      <point x="387" y="371" type="curve" smooth="yes"/>
      <point x="387" y="428"/>
      <point x="338" y="465"/>
      <point x="270" y="465" type="curve" smooth="yes"/>
      <point x="123" y="465" type="line"/>
      <point x="172" y="509" type="line"/>
      <point x="172" y="43" type="line" smooth="yes"/>
      <point x="172" y="19"/>
      <point x="147" y="-1"/>
      <point x="123" y="-1" type="curve" smooth="yes"/>
      <point x="99" y="-1"/>
      <point x="74" y="19"/>
      <point x="74" y="43" type="curve" smooth="yes"/>
      <point x="74" y="509" type="line"/>
      <point x="74" y="533"/>
      <point x="96" y="553"/>
      <point x="123" y="553" type="curve" smooth="yes"/>
      <point x="270" y="553" type="line" smooth="yes"/>
      <point x="402" y="553"/>
      <point x="485" y="476"/>
      <point x="485" y="371" type="curve" smooth="yes"/>
      <point x="485" y="274"/>
      <point x="417" y="190"/>
      <point x="270" y="190" type="curve" smooth="yes"/>
      <point x="139" y="190" type="line" smooth="yes"/>
      <point x="115" y="190"/>
      <point x="95" y="210"/>
      <point x="95" y="234" type="curve" smooth="yes"/>
      <point x="95" y="258"/>
      <point x="115" y="278"/>
    </contour>
    <contour>
      <point x="333" y="258" type="curve" smooth="yes"/>
      <point x="498" y="73" type="line" smooth="yes"/>
      <point x="514" y="55"/>
      <point x="511" y="26"/>
      <point x="493" y="10" type="curve" smooth="yes"/>
      <point x="476" y="-6"/>
      <point x="446" y="-5"/>
      <point x="430" y="13" type="curve" smooth="yes"/>
      <point x="265" y="198" type="line" smooth="yes"/>
      <point x="249" y="216"/>
      <point x="252" y="245"/>
      <point x="270" y="261" type="curve" smooth="yes"/>
      <point x="287" y="277"/>
      <point x="317" y="276"/>
    </contour>
  </outline>
</glyph>
<glyph name="S" format="1">
  <advance width="525"/>
  <unicode hex="0053"/>
  <outline>
    <contour>
      <point x="377" y="444" type="curve" smooth="yes"/>
      <point x="335" y="460"/>
      <point x="305" y="470"/>
      <point x="243" y="470" type="curve" smooth="yes"/>
      <point x="195" y="470"/>
      <point x="156" y="447"/>
      <point x="156" y="414" type="curve" smooth="yes"/>
      <point x="156" y="379"/>
      <point x="184" y="347"/>
      <point x="272" y="330" type="curve" smooth="yes"/>
      <point x="434" y="297"/>
      <point x="476" y="229"/>
      <point x="476" y="151" type="curve" smooth="yes"/>
      <point x="476" y="72"/>
      <point x="420" y="-10"/>
      <point x="263" y="-10" type="curve" smooth="yes"/>
      <point x="196" y="-10"/>
      <point x="132" y="5"/>
      <point x="73" y="36" type="curve" smooth="yes"/>
      <point x="52" y="47"/>
      <point x="44" y="75"/>
      <point x="55" y="96" type="curve" smooth="yes"/>
      <point x="67" y="117"/>
      <point x="94" y="125"/>
      <point x="115" y="114" type="curve" smooth="yes"/>
      <point x="160" y="89"/>
      <point x="210" y="78"/>
      <point x="263" y="78" type="curve" smooth="yes"/>
      <point x="334" y="78"/>
      <point x="378" y="108"/>
      <point x="378" y="151" type="curve" smooth="yes"/>
      <point x="378" y="197"/>
      <point x="338" y="227"/>
      <point x="256" y="244" type="curve" smooth="yes"/>
      <point x="76" y="277"/>
      <point x="58" y="353"/>
      <point x="58" y="414" type="curve"/>
      <point x="58" y="483"/>
      <point x="121" y="558"/>
      <point x="243" y="558" type="curve" smooth="yes"/>
      <point x="319" y="558"/>
      <point x="357" y="546"/>
      <point x="409" y="526" type="curve" smooth="yes"/>
      <point x="431" y="518"/>
      <point x="443" y="491"/>
      <point x="434" y="469" type="curve" smooth="yes"/>
      <point x="426" y="447"/>
      <point x="399" y="435"/>
    </contour>
  </outline>
</glyph>
<glyph name="T" format="1">
  <advance width="546"/>
  <unicode hex="0054"/>
  <outline>
    <contour>
      <point x="320" y="509" type="curve" smooth="yes"/>
      <point x="320" y="43" type="line" smooth="yes"/>
      <point x="320" y="19"/>
      <point x="295" y="-1"/>
      <point x="271" y="-1" type="curve" smooth="yes"/>
      <point x="247" y="-1"/>
      <point x="222" y="19"/>
      <point x="222" y="43" type="curve" smooth="yes"/>
      <point x="222" y="509" type="line" smooth="yes"/>
      <point x="222" y="533"/>
      <point x="247" y="553"/>
      <point x="271" y="553" type="curve" smooth="yes"/>
      <point x="295" y="553"/>
      <point x="320" y="533"/>
    </contour>
    <contour>
      <point x="59" y="553" type="curve" smooth="yes"/>
      <point x="487" y="553" type="line" smooth="yes"/>
      <point x="511" y="553"/>
      <point x="531" y="533"/>
      <point x="531" y="509" type="curve" smooth="yes"/>
      <point x="531" y="485"/>
      <point x="511" y="465"/>
      <point x="487" y="465" type="curve" smooth="yes"/>
      <point x="59" y="465" type="line" smooth="yes"/>
      <point x="35" y="465"/>
      <point x="15" y="485"/>
      <point x="15" y="509" type="curve" smooth="yes"/>
      <point x="15" y="533"/>
      <point x="35" y="553"/>
    </contour>
  </outline>
</glyph>
<glyph name="U" format="1">
  <advance width="616"/>
  <unicode hex="0055"/>
  <outline>
    <contour>
      <point x="160" y="508" type="curve" smooth="yes"/>
      <point x="160" y="224" type="line" smooth="yes"/>
      <point x="160" y="133"/>
      <point x="218" y="78"/>
      <point x="306" y="78" type="curve" smooth="yes"/>
      <point x="404" y="78"/>
      <point x="456" y="133"/>
      <point x="456" y="227" type="curve" smooth="yes"/>
      <point x="456" y="508" type="line" smooth="yes"/>
      <point x="456" y="532"/>
      <point x="481" y="552"/>
      <point x="505" y="552" type="curve" smooth="yes"/>
      <point x="529" y="552"/>
      <point x="554" y="532"/>
      <point x="554" y="508" type="curve" smooth="yes"/>
      <point x="554" y="227" type="line" smooth="yes"/>
      <point x="554" y="71"/>
      <point x="462" y="-10"/>
      <point x="306" y="-10" type="curve" smooth="yes"/>
      <point x="164" y="-10"/>
      <point x="62" y="71"/>
      <point x="62" y="224" type="curve"/>
      <point x="62" y="508" type="line" smooth="yes"/>
      <point x="62" y="532"/>
      <point x="87" y="552"/>
      <point x="111" y="552" type="curve" smooth="yes"/>
      <point x="135" y="552"/>
      <point x="160" y="532"/>
    </contour>
  </outline>
</glyph>
<glyph name="W" format="1">
  <advance width="897"/>
  <unicode hex="0057"/>
  <outline>
    <contour>
      <point x="137" y="520" type="curve" smooth="yes"/>
      <point x="171" y="403"/>
      <point x="268" y="131"/>
      <point x="302" y="61" type="curve" smooth="yes"/>
      <point x="313" y="39"/>
      <point x="301" y="11"/>
      <point x="279" y="1" type="curve" smooth="yes"/>
      <point x="258" y="-10"/>
      <point x="228" y="-2"/>
      <point x="218" y="19" type="curve" smooth="yes"/>
      <point x="182" y="91"/>
      <point x="79" y="373"/>
      <point x="45" y="494" type="curve" smooth="yes"/>
      <point x="38" y="517"/>
      <point x="56" y="543"/>
      <point x="79" y="549" type="curve" smooth="yes"/>
      <point x="102" y="556"/>
      <point x="131" y="543"/>
    </contour>
    <contour>
      <point x="221" y="54" type="curve" smooth="yes"/>
      <point x="258" y="134"/>
      <point x="361" y="385"/>
      <point x="403" y="519" type="curve" smooth="yes"/>
      <point x="411" y="541"/>
      <point x="440" y="553"/>
      <point x="462" y="546" type="curve" smooth="yes"/>
      <point x="485" y="539"/>
      <point x="502" y="512"/>
      <point x="495" y="489" type="curve" smooth="yes"/>
      <point x="451" y="353"/>
      <point x="344" y="96"/>
      <point x="307" y="14" type="curve" smooth="yes"/>
      <point x="297" y="-7"/>
      <point x="267" y="-16"/>
      <point x="246" y="-6" type="curve" smooth="yes"/>
      <point x="224" y="4"/>
      <point x="211" y="32"/>
    </contour>
    <contour>
      <point x="499" y="508" type="curve" smooth="yes"/>
      <point x="536" y="393"/>
      <point x="636" y="130"/>
      <point x="672" y="60" type="curve" smooth="yes"/>
      <point x="683" y="39"/>
      <point x="671" y="11"/>
      <point x="650" y="0" type="curve" smooth="yes"/>
      <point x="629" y="-11"/>
      <point x="599" y="-3"/>
      <point x="588" y="18" type="curve" smooth="yes"/>
      <point x="552" y="90"/>
      <point x="446" y="359"/>
      <point x="407" y="478" type="curve" smooth="yes"/>
      <point x="400" y="501"/>
      <point x="417" y="528"/>
      <point x="439" y="535" type="curve" smooth="yes"/>
      <point x="462" y="542"/>
      <point x="491" y="530"/>
    </contour>
    <contour>
      <point x="591" y="53" type="curve" smooth="yes"/>
      <point x="628" y="133"/>
      <point x="721" y="386"/>
      <point x="761" y="521" type="curve" smooth="yes"/>
      <point x="768" y="544"/>
      <point x="797" y="556"/>
      <point x="820" y="549" type="curve" smooth="yes"/>
      <point x="842" y="542"/>
      <point x="860" y="516"/>
      <point x="853" y="493" type="curve" smooth="yes"/>
      <point x="811" y="354"/>
      <point x="714" y="95"/>
      <point x="677" y="13" type="curve" smooth="yes"/>
      <point x="667" y="-8"/>
      <point x="637" y="-17"/>
      <point x="616" y="-7" type="curve" smooth="yes"/>
      <point x="594" y="3"/>
      <point x="581" y="31"/>
    </contour>
  </outline>
</glyph>
<glyph name="Z" format="1">
  <advance width="563"/>
  <unicode hex="005A"/>
  <outline>
    <contour>
      <point x="500" y="483" type="curve" smooth="yes"/>
      <point x="437" y="391"/>
      <point x="184" y="103"/>
      <point x="131" y="25" type="curve" smooth="yes"/>
      <point x="118" y="6"/>
      <point x="88" y="1"/>
      <point x="68" y="15" type="curve" smooth="yes"/>
      <point x="49" y="28"/>
      <point x="42" y="57"/>
      <point x="55" y="77" type="curve" smooth="yes"/>
      <point x="108" y="155"/>
      <point x="361" y="443"/>
      <point x="424" y="535" type="curve" smooth="yes"/>
      <point x="438" y="555"/>
      <point x="467" y="559"/>
      <point x="487" y="545" type="curve" smooth="yes"/>
      <point x="506" y="532"/>
      <point x="513" y="503"/>
    </contour>
    <contour>
      <point x="102" y="553" type="curve" smooth="yes"/>
      <point x="451" y="553" type="line" smooth="yes"/>
      <point x="475" y="553"/>
      <point x="495" y="533"/>
      <point x="495" y="509" type="curve" smooth="yes"/>
      <point x="495" y="485"/>
      <point x="475" y="465"/>
      <point x="451" y="465" type="curve" smooth="yes"/>
      <point x="102" y="465" type="line" smooth="yes"/>
      <point x="78" y="465"/>
      <point x="58" y="485"/>
      <point x="58" y="509" type="curve" smooth="yes"/>
      <point x="58" y="533"/>
      <point x="78" y="553"/>
    </contour>
    <contour>
      <point x="89" y="87" type="curve" smooth="yes"/>
      <point x="474" y="87" type="line" smooth="yes"/>
      <point x="498" y="87"/>
      <point x="518" y="67"/>
      <point x="518" y="43" type="curve" smooth="yes"/>
      <point x="518" y="19"/>
      <point x="498" y="-1"/>
      <point x="474" y="-1" type="curve" smooth="yes"/>
      <point x="89" y="-1" type="line" smooth="yes"/>
      <point x="65" y="-1"/>
      <point x="45" y="19"/>
      <point x="45" y="43" type="curve" smooth="yes"/>
      <point x="45" y="67"/>
      <point x="65" y="87"/>
    </contour>
  </outline>
</glyph>
<glyph name="grave" format="1">
  <advance width="490"/>
  <unicode hex="0060"/>
  <outline>
    <contour>
      <point x="244" y="638" type="curve" smooth="yes"/>
      <point x="272" y="604"/>
      <point x="290" y="583"/>
      <point x="316" y="544" type="curve" smooth="yes"/>
      <point x="328" y="527"/>
      <point x="321" y="500"/>
      <point x="303" y="488" type="curve" smooth="yes"/>
      <point x="285" y="476"/>
      <point x="258" y="480"/>
      <point x="246" y="498" type="curve" smooth="yes"/>
      <point x="222" y="533"/>
      <point x="206" y="554"/>
      <point x="180" y="586" type="curve" smooth="yes"/>
      <point x="166" y="603"/>
      <point x="170" y="629"/>
      <point x="187" y="643" type="curve" smooth="yes"/>
      <point x="203" y="657"/>
      <point x="230" y="655"/>
    </contour>
  </outline>
</glyph>
<glyph name="a" format="1">
  <advance width="450"/>
  <unicode hex="0061"/>
  <outline>
    <contour>
      <point x="109" y="396" type="curve" smooth="yes"/>
      <point x="133" y="404"/>
      <point x="177" y="413"/>
      <point x="215" y="413" type="curve" smooth="yes"/>
      <point x="336" y="413"/>
      <point x="396" y="345"/>
      <point x="396" y="240" type="curve" smooth="yes"/>
      <point x="396" y="152" type="line" smooth="yes"/>
      <point x="396" y="116"/>
      <point x="400" y="92"/>
      <point x="417" y="74" type="curve" smooth="yes"/>
      <point x="433" y="57"/>
      <point x="431" y="29"/>
      <point x="415" y="14" type="curve" smooth="yes"/>
      <point x="399" y="-2"/>
      <point x="371" y="-2"/>
      <point x="355" y="14" type="curve" smooth="yes"/>
      <point x="324" y="46"/>
      <point x="302" y="84"/>
      <point x="302" y="152" type="curve" smooth="yes"/>
      <point x="302" y="240" type="line" smooth="yes"/>
      <point x="302" y="291"/>
      <point x="278" y="329"/>
      <point x="215" y="329" type="curve" smooth="yes"/>
      <point x="187" y="329"/>
      <point x="153" y="322"/>
      <point x="135" y="316" type="curve" smooth="yes"/>
      <point x="114" y="309"/>
      <point x="89" y="321"/>
      <point x="82" y="343" type="curve" smooth="yes"/>
      <point x="75" y="364"/>
      <point x="87" y="389"/>
    </contour>
    <contour>
      <point x="347" y="187" type="curve" smooth="yes"/>
      <point x="313" y="188"/>
      <point x="284" y="190"/>
      <point x="255" y="190" type="curve" smooth="yes"/>
      <point x="197" y="190"/>
      <point x="157" y="179"/>
      <point x="133" y="155" type="curve" smooth="yes"/>
      <point x="121" y="145"/>
      <point x="122" y="132"/>
      <point x="122" y="121" type="curve" smooth="yes"/>
      <point x="122" y="103"/>
      <point x="139" y="85"/>
      <point x="172" y="85" type="curve" smooth="yes"/>
      <point x="232" y="85"/>
      <point x="276" y="111"/>
      <point x="315" y="161" type="curve" smooth="yes"/>
      <point x="328" y="179"/>
      <point x="357" y="181"/>
      <point x="375" y="167" type="curve" smooth="yes"/>
      <point x="393" y="153"/>
      <point x="397" y="125"/>
      <point x="383" y="107" type="curve" smooth="yes"/>
      <point x="326" y="33"/>
      <point x="260" y="1"/>
      <point x="172" y="1" type="curve" smooth="yes"/>
      <point x="63" y="1"/>
      <point x="28" y="69"/>
      <point x="28" y="121" type="curve" smooth="yes"/>
      <point x="28" y="158"/>
      <point x="43" y="189"/>
      <point x="73" y="217" type="curve" smooth="yes"/>
      <point x="109" y="251"/>
      <point x="167" y="274"/>
      <point x="255" y="274" type="curve" smooth="yes"/>
      <point x="284" y="274"/>
      <point x="315" y="272"/>
      <point x="349" y="271" type="curve" smooth="yes"/>
      <point x="372" y="270"/>
      <point x="391" y="250"/>
      <point x="390" y="228" type="curve" smooth="yes"/>
      <point x="389" y="205"/>
      <point x="369" y="186"/>
    </contour>
  </outline>
</glyph>
<glyph name="d" format="1">
  <advance width="505"/>
  <unicode hex="0064"/>
  <outline>
    <contour>
      <point x="368" y="280" type="curve" smooth="yes"/>
      <point x="331" y="309"/>
      <point x="294" y="327"/>
      <point x="245" y="327" type="curve" smooth="yes"/>
      <point x="172" y="327"/>
      <point x="123" y="270"/>
      <point x="123" y="199" type="curve"/>
      <point x="123" y="135"/>
      <point x="163" y="87"/>
      <point x="224" y="87" type="curve" smooth="yes"/>
      <point x="285" y="87"/>
      <point x="325" y="131"/>
      <point x="355" y="179" type="curve" smooth="yes"/>
      <point x="367" y="200"/>
      <point x="397" y="205"/>
      <point x="417" y="192" type="curve" smooth="yes"/>
      <point x="437" y="180"/>
      <point x="446" y="151"/>
      <point x="433" y="131" type="curve" smooth="yes"/>
      <point x="385" y="53"/>
      <point x="315" y="-1"/>
      <point x="224" y="-1" type="curve" smooth="yes"/>
      <point x="115" y="-1"/>
      <point x="25" y="73"/>
      <point x="25" y="199" type="curve" smooth="yes"/>
      <point x="25" y="328"/>
      <point x="122" y="415"/>
      <point x="245" y="415" type="curve" smooth="yes"/>
      <point x="316" y="415"/>
      <point x="369" y="391"/>
      <point x="422" y="350" type="curve" smooth="yes"/>
      <point x="441" y="335"/>
      <point x="444" y="307"/>
      <point x="430" y="288" type="curve" smooth="yes"/>
      <point x="415" y="269"/>
      <point x="386" y="265"/>
    </contour>
    <contour>
      <point x="444" y="534" type="curve" smooth="yes"/>
      <point x="444" y="43" type="line" smooth="yes"/>
      <point x="444" y="19"/>
      <point x="419" y="-1"/>
      <point x="395" y="-1" type="curve" smooth="yes"/>
      <point x="371" y="-1"/>
      <point x="346" y="19"/>
      <point x="346" y="43" type="curve" smooth="yes"/>
      <point x="346" y="534" type="line" smooth="yes"/>
      <point x="346" y="558"/>
      <point x="371" y="578"/>
      <point x="395" y="578" type="curve" smooth="yes"/>
      <point x="419" y="578"/>
      <point x="444" y="558"/>
    </contour>
  </outline>
</glyph>
<glyph name="g" format="1">
  <advance width="503"/>
  <unicode hex="0067"/>
  <outline>
    <contour>
      <point x="375" y="290" type="curve" smooth="yes"/>
      <point x="330" y="311"/>
      <point x="299" y="321"/>
      <point x="250" y="321" type="curve" smooth="yes"/>
      <point x="183" y="321"/>
      <point x="122" y="268"/>
      <point x="122" y="191" type="curve"/>
      <point x="122" y="124"/>
      <point x="166" y="90"/>
      <point x="216" y="90" type="curve" smooth="yes"/>
      <point x="269" y="90"/>
      <point x="320" y="122"/>
      <point x="354" y="175" type="curve" smooth="yes"/>
      <point x="367" y="194"/>
      <point x="396" y="199"/>
      <point x="416" y="186" type="curve" smooth="yes"/>
      <point x="435" y="173"/>
      <point x="442" y="145"/>
      <point x="430" y="125" type="curve" smooth="yes"/>
      <point x="376" y="44"/>
      <point x="295" y="4"/>
      <point x="216" y="4" type="curve" smooth="yes"/>
      <point x="124" y="4"/>
      <point x="26" y="56"/>
      <point x="26" y="191" type="curve" smooth="yes"/>
      <point x="26" y="326"/>
      <point x="139" y="407"/>
      <point x="250" y="407" type="curve" smooth="yes"/>
      <point x="313" y="407"/>
      <point x="352" y="395"/>
      <point x="411" y="368" type="curve" smooth="yes"/>
      <point x="432" y="358"/>
      <point x="442" y="332"/>
      <point x="432" y="311" type="curve" smooth="yes"/>
      <point x="422" y="290"/>
      <point x="396" y="280"/>
    </contour>
    <contour>
      <point x="162" y="-95" type="curve" smooth="yes"/>
      <point x="290" y="-95"/>
      <point x="345" y="-25"/>
      <point x="345" y="80" type="curve" smooth="yes"/>
      <point x="345" y="364" type="line" smooth="yes"/>
      <point x="345" y="387"/>
      <point x="370" y="407"/>
      <point x="393" y="407" type="curve" smooth="yes"/>
      <point x="416" y="407"/>
      <point x="441" y="387"/>
      <point x="441" y="364" type="curve" smooth="yes"/>
      <point x="441" y="80" type="line" smooth="yes"/>
      <point x="441" y="-79"/>
      <point x="354" y="-181"/>
      <point x="162" y="-181" type="curve" smooth="yes"/>
      <point x="139" y="-181"/>
      <point x="119" y="-161"/>
      <point x="119" y="-138" type="curve" smooth="yes"/>
      <point x="119" y="-115"/>
      <point x="139" y="-95"/>
    </contour>
  </outline>
</glyph>
<glyph name="h" format="1">
  <advance width="497"/>
  <unicode hex="0068"/>
  <outline>
    <contour>
      <point x="61" y="43" type="curve" smooth="yes"/>
      <point x="61" y="534" type="line" smooth="yes"/>
      <point x="61" y="558"/>
      <point x="86" y="578"/>
      <point x="110" y="578" type="curve" smooth="yes"/>
      <point x="134" y="578"/>
      <point x="159" y="558"/>
      <point x="159" y="534" type="curve" smooth="yes"/>
      <point x="159" y="43" type="line" smooth="yes"/>
      <point x="159" y="19"/>
      <point x="134" y="-1"/>
      <point x="110" y="-1" type="curve" smooth="yes"/>
      <point x="86" y="-1"/>
      <point x="61" y="19"/>
    </contour>
    <contour>
      <point x="348" y="43" type="curve" smooth="yes"/>
      <point x="348" y="235" type="line" smooth="yes"/>
      <point x="348" y="292"/>
      <point x="328" y="327"/>
      <point x="285" y="327" type="curve" smooth="yes"/>
      <point x="233" y="327"/>
      <point x="184" y="293"/>
      <point x="145" y="256" type="curve" smooth="yes"/>
      <point x="128" y="239"/>
      <point x="99" y="240"/>
      <point x="82" y="258" type="curve" smooth="yes"/>
      <point x="66" y="275"/>
      <point x="66" y="304"/>
      <point x="83" y="320" type="curve" smooth="yes"/>
      <point x="140" y="375"/>
      <point x="211" y="415"/>
      <point x="285" y="415" type="curve" smooth="yes"/>
      <point x="370" y="415"/>
      <point x="446" y="380"/>
      <point x="446" y="235" type="curve" smooth="yes"/>
      <point x="446" y="43" type="line" smooth="yes"/>
      <point x="446" y="19"/>
      <point x="421" y="-1"/>
      <point x="397" y="-1" type="curve" smooth="yes"/>
      <point x="373" y="-1"/>
      <point x="348" y="19"/>
    </contour>
  </outline>
</glyph>
<glyph name="j" format="1">
  <advance width="232"/>
  <unicode hex="006A"/>
  <outline>
    <contour>
      <point x="116" y="609" type="curve" smooth="yes"/>
      <point x="149" y="609"/>
      <point x="183" y="585"/>
      <point x="183" y="540" type="curve" smooth="yes"/>
      <point x="183" y="490"/>
      <point x="149" y="473"/>
      <point x="117" y="473" type="curve" smooth="yes"/>
      <point x="82" y="473"/>
      <point x="49" y="493"/>
      <point x="49" y="540" type="curve"/>
      <point x="49" y="585"/>
      <point x="83" y="609"/>
    </contour>
    <contour>
      <point x="-9" y="-74" type="curve" smooth="yes"/>
      <point x="44" y="-54"/>
      <point x="67" y="-13"/>
      <point x="67" y="55" type="curve" smooth="yes"/>
      <point x="67" y="365" type="line" smooth="yes"/>
      <point x="67" y="389"/>
      <point x="92" y="409"/>
      <point x="116" y="409" type="curve" smooth="yes"/>
      <point x="140" y="409"/>
      <point x="165" y="389"/>
      <point x="165" y="365" type="curve" smooth="yes"/>
      <point x="165" y="55" type="line" smooth="yes"/>
      <point x="165" y="-67"/>
      <point x="108" y="-124"/>
      <point x="21" y="-156" type="curve" smooth="yes"/>
      <point x="-1" y="-165"/>
      <point x="-27" y="-153"/>
      <point x="-35" y="-130" type="curve" smooth="yes"/>
      <point x="-44" y="-108"/>
      <point x="-32" y="-82"/>
    </contour>
  </outline>
</glyph>
<glyph name="k" format="1">
  <advance width="469"/>
  <unicode hex="006B"/>
  <outline>
    <contour>
      <point x="61" y="43" type="curve" smooth="yes"/>
      <point x="61" y="534" type="line" smooth="yes"/>
      <point x="61" y="558"/>
      <point x="86" y="578"/>
      <point x="110" y="578" type="curve" smooth="yes"/>
      <point x="134" y="578"/>
      <point x="159" y="558"/>
      <point x="159" y="534" type="curve" smooth="yes"/>
      <point x="159" y="43" type="line" smooth="yes"/>
      <point x="159" y="19"/>
      <point x="134" y="-1"/>
      <point x="110" y="-1" type="curve" smooth="yes"/>
      <point x="86" y="-1"/>
      <point x="61" y="19"/>
    </contour>
    <contour>
      <point x="271" y="287" type="curve" smooth="yes"/>
      <point x="432" y="70" type="line" smooth="yes"/>
      <point x="446" y="51"/>
      <point x="440" y="22"/>
      <point x="421" y="8" type="curve" smooth="yes"/>
      <point x="402" y="-6"/>
      <point x="372" y="-3"/>
      <point x="358" y="16" type="curve" smooth="yes"/>
      <point x="197" y="233" type="line" smooth="yes"/>
      <point x="183" y="252"/>
      <point x="189" y="281"/>
      <point x="208" y="295" type="curve" smooth="yes"/>
      <point x="227" y="309"/>
      <point x="257" y="306"/>
    </contour>
    <contour>
      <point x="409" y="336" type="curve" smooth="yes"/>
      <point x="139" y="133" type="line" smooth="yes"/>
      <point x="120" y="118"/>
      <point x="91" y="123"/>
      <point x="77" y="142" type="curve" smooth="yes"/>
      <point x="63" y="161"/>
      <point x="66" y="189"/>
      <point x="85" y="203" type="curve" smooth="yes"/>
      <point x="355" y="406" type="line" smooth="yes"/>
      <point x="374" y="421"/>
      <point x="403" y="416"/>
      <point x="417" y="397" type="curve" smooth="yes"/>
      <point x="431" y="378"/>
      <point x="428" y="350"/>
    </contour>
  </outline>
</glyph>
<glyph name="o" format="1">
  <advance width="495"/>
  <unicode hex="006F"/>
  <outline>
    <contour>
      <point x="247" y="419" type="curve" smooth="yes"/>
      <point x="381" y="419"/>
      <point x="470" y="324"/>
      <point x="470" y="202" type="curve" smooth="yes"/>
      <point x="470" y="84"/>
      <point x="382" y="-5"/>
      <point x="247" y="-5" type="curve" smooth="yes"/>
      <point x="113" y="-5"/>
      <point x="24" y="85"/>
      <point x="24" y="204" type="curve" smooth="yes"/>
      <point x="24" y="323"/>
      <point x="111" y="419"/>
    </contour>
    <contour>
      <point x="247" y="331" type="curve" smooth="yes"/>
      <point x="167" y="331"/>
      <point x="122" y="271"/>
      <point x="122" y="204" type="curve"/>
      <point x="122" y="137"/>
      <point x="169" y="83"/>
      <point x="247" y="83" type="curve" smooth="yes"/>
      <point x="324" y="83"/>
      <point x="372" y="136"/>
      <point x="372" y="202" type="curve" smooth="yes"/>
      <point x="372" y="270"/>
      <point x="327" y="331"/>
    </contour>
  </outline>
</glyph>
<glyph name="r" format="1">
  <advance width="346"/>
  <unicode hex="0072"/>
  <outline>
    <contour>
      <point x="61" y="43" type="curve" smooth="yes"/>
      <point x="61" y="371" type="line" smooth="yes"/>
      <point x="61" y="395"/>
      <point x="86" y="415"/>
      <point x="110" y="415" type="curve" smooth="yes"/>
      <point x="134" y="415"/>
      <point x="159" y="395"/>
      <point x="159" y="371" type="curve" smooth="yes"/>
      <point x="159" y="43" type="line" smooth="yes"/>
      <point x="159" y="19"/>
      <point x="134" y="-1"/>
      <point x="110" y="-1" type="curve" smooth="yes"/>
      <point x="86" y="-1"/>
      <point x="61" y="19"/>
    </contour>
    <contour>
      <point x="73" y="272" type="curve" smooth="yes"/>
      <point x="128" y="354"/>
      <point x="195" y="403"/>
      <point x="297" y="415" type="curve" smooth="yes"/>
      <point x="321" y="417"/>
      <point x="343" y="400"/>
      <point x="346" y="376" type="curve" smooth="yes"/>
      <point x="348" y="352"/>
      <point x="331" y="330"/>
      <point x="307" y="327" type="curve" smooth="yes"/>
      <point x="233" y="319"/>
      <point x="188" y="278"/>
      <point x="149" y="220" type="curve" smooth="yes"/>
      <point x="136" y="201"/>
      <point x="106" y="196"/>
      <point x="86" y="209" type="curve" smooth="yes"/>
      <point x="67" y="223"/>
      <point x="60" y="252"/>
    </contour>
  </outline>
</glyph>
<glyph name="t" format="1">
  <advance width="354"/>
  <unicode hex="0074"/>
  <outline>
    <contour>
      <point x="183" y="492" type="curve" smooth="yes"/>
      <point x="183" y="155" type="line" smooth="yes"/>
      <point x="183" y="108"/>
      <point x="219" y="88"/>
      <point x="280" y="87" type="curve" smooth="yes"/>
      <point x="304" y="87"/>
      <point x="323" y="66"/>
      <point x="323" y="42" type="curve" smooth="yes"/>
      <point x="323" y="18"/>
      <point x="302" y="-1"/>
      <point x="278" y="-1" type="curve" smooth="yes"/>
      <point x="137" y="2"/>
      <point x="85" y="60"/>
      <point x="85" y="155" type="curve"/>
      <point x="85" y="492" type="line" smooth="yes"/>
      <point x="85" y="516"/>
      <point x="110" y="536"/>
      <point x="134" y="536" type="curve" smooth="yes"/>
      <point x="158" y="536"/>
      <point x="183" y="516"/>
    </contour>
    <contour>
      <point x="46" y="415" type="curve" smooth="yes"/>
      <point x="292" y="415" type="line" smooth="yes"/>
      <point x="316" y="415"/>
      <point x="336" y="395"/>
      <point x="336" y="371" type="curve" smooth="yes"/>
      <point x="336" y="347"/>
      <point x="316" y="327"/>
      <point x="292" y="327" type="curve" smooth="yes"/>
      <point x="46" y="327" type="line" smooth="yes"/>
      <point x="22" y="327"/>
      <point x="2" y="347"/>
      <point x="2" y="371" type="curve" smooth="yes"/>
      <point x="2" y="395"/>
      <point x="22" y="415"/>
    </contour>
  </outline>
</glyph>
<glyph name="v" format="1">
  <advance width="451"/>
  <unicode hex="0076"/>
  <outline>
    <contour>
      <point x="107" y="389" type="curve" smooth="yes"/>
      <point x="165" y="245"/>
      <point x="216" y="145"/>
      <point x="268" y="64" type="curve"/>
      <point x="229" y="83" type="line"/>
      <point x="232" y="83" type="line"/>
      <point x="193" y="64" type="line"/>
      <point x="244" y="144"/>
      <point x="306" y="286"/>
      <point x="345" y="388" type="curve" smooth="yes"/>
      <point x="353" y="410"/>
      <point x="382" y="421"/>
      <point x="405" y="412" type="curve" smooth="yes"/>
      <point x="427" y="404"/>
      <point x="442" y="376"/>
      <point x="433" y="354" type="curve" smooth="yes"/>
      <point x="392" y="246"/>
      <point x="324" y="100"/>
      <point x="271" y="14" type="curve" smooth="yes"/>
      <point x="264" y="4"/>
      <point x="247" y="-5"/>
      <point x="232" y="-5" type="curve" smooth="yes"/>
      <point x="229" y="-5" type="line" smooth="yes"/>
      <point x="214" y="-5"/>
      <point x="197" y="4"/>
      <point x="190" y="14" type="curve" smooth="yes"/>
      <point x="136" y="99"/>
      <point x="79" y="203"/>
      <point x="19" y="353" type="curve" smooth="yes"/>
      <point x="10" y="375"/>
      <point x="25" y="403"/>
      <point x="47" y="412" type="curve" smooth="yes"/>
      <point x="69" y="421"/>
      <point x="98" y="411"/>
    </contour>
  </outline>
</glyph>
<glyph name="asciitilde" format="1">
  <advance width="612"/>
  <unicode hex="007E"/>
  <outline>
    <contour>
      <point x="71" y="249" type="curve" smooth="yes"/>
      <point x="120" y="343"/>
      <point x="167" y="375"/>
      <point x="222" y="375" type="curve" smooth="yes"/>
      <point x="269" y="375"/>
      <point x="302" y="348"/>
      <point x="341" y="307" type="curve" smooth="yes"/>
      <point x="362" y="284"/>
      <point x="377" y="264"/>
      <point x="400" y="264" type="curve" smooth="yes"/>
      <point x="436" y="264"/>
      <point x="449" y="305"/>
      <point x="474" y="356" type="curve" smooth="yes"/>
      <point x="484" y="377"/>
      <point x="514" y="385"/>
      <point x="535" y="374" type="curve" smooth="yes"/>
      <point x="557" y="364"/>
      <point x="569" y="336"/>
      <point x="558" y="314" type="curve" smooth="yes"/>
      <point x="505" y="207"/>
      <point x="460" y="176"/>
      <point x="400" y="176" type="curve" smooth="yes"/>
      <point x="355" y="176"/>
      <point x="318" y="198"/>
      <point x="277" y="245" type="curve" smooth="yes"/>
      <point x="258" y="264"/>
      <point x="247" y="287"/>
      <point x="222" y="287" type="curve" smooth="yes"/>
      <point x="191" y="287"/>
      <point x="176" y="249"/>
      <point x="155" y="207" type="curve" smooth="yes"/>
      <point x="144" y="185"/>
      <point x="114" y="178"/>
      <point x="93" y="189" type="curve" smooth="yes"/>
      <point x="72" y="200"/>
      <point x="61" y="228"/>
    </contour>
  </outline>
</glyph>
<glyph name="yen" format="1">
  <advance width="560"/>
  <unicode hex="00A5"/>
  <outline>
    <contour>
      <point x="337" y="275" type="curve" smooth="yes"/>
      <point x="337" y="43" type="line" smooth="yes"/>
      <point x="337" y="19"/>
      <point x="312" y="-1"/>
      <point x="288" y="-1" type="curve" smooth="yes"/>
      <point x="264" y="-1"/>
      <point x="239" y="19"/>
      <point x="239" y="43" type="curve" smooth="yes"/>
      <point x="239" y="275" type="line" smooth="yes"/>
      <point x="239" y="299"/>
      <point x="264" y="319"/>
      <point x="288" y="319" type="curve" smooth="yes"/>
      <point x="312" y="319"/>
      <point x="337" y="299"/>
    </contour>
    <contour>
      <point x="130" y="536" type="curve" smooth="yes"/>
      <point x="178" y="470"/>
      <point x="278" y="358"/>
      <point x="315" y="324" type="curve" smooth="yes"/>
      <point x="333" y="308"/>
      <point x="333" y="279"/>
      <point x="317" y="261" type="curve" smooth="yes"/>
      <point x="301" y="244"/>
      <point x="272" y="242"/>
      <point x="255" y="258" type="curve" smooth="yes"/>
      <point x="216" y="294"/>
      <point x="106" y="412"/>
      <point x="56" y="482" type="curve" smooth="yes"/>
      <point x="42" y="502"/>
      <point x="48" y="531"/>
      <point x="67" y="545" type="curve" smooth="yes"/>
      <point x="87" y="559"/>
      <point x="116" y="555"/>
    </contour>
    <contour>
      <point x="257" y="313" type="curve" smooth="yes"/>
      <point x="306" y="360"/>
      <point x="394" y="471"/>
      <point x="442" y="536" type="curve" smooth="yes"/>
      <point x="456" y="555"/>
      <point x="486" y="559"/>
      <point x="505" y="545" type="curve" smooth="yes"/>
      <point x="524" y="530"/>
      <point x="530" y="501"/>
      <point x="516" y="482" type="curve" smooth="yes"/>
      <point x="466" y="413"/>
      <point x="370" y="298"/>
      <point x="319" y="249" type="curve" smooth="yes"/>
      <point x="302" y="232"/>
      <point x="273" y="233"/>
      <point x="256" y="251" type="curve" smooth="yes"/>
      <point x="240" y="268"/>
      <point x="240" y="297"/>
    </contour>
    <contour>
      <point x="113" y="321" type="curve" smooth="yes"/>
      <point x="461" y="321" type="line" smooth="yes"/>
      <point x="485" y="321"/>
      <point x="505" y="301"/>
      <point x="505" y="277" type="curve" smooth="yes"/>
      <point x="505" y="253"/>
      <point x="485" y="233"/>
      <point x="461" y="233" type="curve" smooth="yes"/>
      <point x="113" y="233" type="line" smooth="yes"/>
      <point x="89" y="233"/>
      <point x="69" y="253"/>
      <point x="69" y="277" type="curve" smooth="yes"/>
      <point x="69" y="301"/>
      <point x="89" y="321"/>
    </contour>
    <contour>
      <point x="113" y="185" type="curve" smooth="yes"/>
      <point x="461" y="185" type="line" smooth="yes"/>
      <point x="485" y="185"/>
      <point x="505" y="165"/>
      <point x="505" y="141" type="curve" smooth="yes"/>
      <point x="505" y="117"/>
      <point x="485" y="97"/>
      <point x="461" y="97" type="curve" smooth="yes"/>
      <point x="113" y="97" type="line" smooth="yes"/>
      <point x="89" y="97"/>
      <point x="69" y="117"/>
      <point x="69" y="141" type="curve" smooth="yes"/>
      <point x="69" y="165"/>
      <point x="89" y="185"/>
    </contour>
  </outline>
</glyph>
<glyph name="dieresis" format="1">
  <advance width="490"/>
  <unicode hex="00A8"/>
  <outline>
    <contour>
      <point x="150" y="629" type="curve" smooth="yes"/>
      <point x="178" y="629"/>
      <point x="215" y="613"/>
      <point x="215" y="560" type="curve" smooth="yes"/>
      <point x="215" y="511"/>
      <point x="179" y="493"/>
      <point x="150" y="493" type="curve" smooth="yes"/>
      <point x="118" y="493"/>
      <point x="84" y="513"/>
      <point x="84" y="560" type="curve"/>
      <point x="84" y="610"/>
      <point x="120" y="629"/>
    </contour>
    <contour>
      <point x="328" y="629" type="curve" smooth="yes"/>
      <point x="356" y="629"/>
      <point x="393" y="613"/>
      <point x="393" y="560" type="curve" smooth="yes"/>
      <point x="393" y="511"/>
      <point x="357" y="493"/>
      <point x="328" y="493" type="curve" smooth="yes"/>
      <point x="296" y="493"/>
      <point x="262" y="513"/>
      <point x="262" y="560" type="curve" smooth="yes"/>
      <point x="262" y="610"/>
      <point x="298" y="629"/>
    </contour>
  </outline>
</glyph>
<glyph name="ordfeminine" format="1">
  <advance width="444"/>
  <unicode hex="00AA"/>
  <outline>
    <contour>
      <point x="98" y="222" type="curve" smooth="yes"/>
      <point x="356" y="222" type="line" smooth="yes"/>
      <point x="377" y="222"/>
      <point x="394" y="205"/>
      <point x="394" y="184" type="curve" smooth="yes"/>
      <point x="394" y="163"/>
      <point x="377" y="146"/>
      <point x="356" y="146" type="curve" smooth="yes"/>
      <point x="98" y="146" type="line" smooth="yes"/>
      <point x="77" y="146"/>
      <point x="60" y="163"/>
      <point x="60" y="184" type="curve" smooth="yes"/>
      <point x="60" y="205"/>
      <point x="77" y="222"/>
    </contour>
    <contour>
      <point x="134" y="539" type="curve" smooth="yes"/>
      <point x="152" y="545"/>
      <point x="182" y="551"/>
      <point x="209" y="551" type="curve" smooth="yes"/>
      <point x="299" y="551"/>
      <point x="344" y="502"/>
      <point x="344" y="424" type="curve" smooth="yes"/>
      <point x="344" y="366" type="line" smooth="yes"/>
      <point x="344" y="346"/>
      <point x="344" y="331"/>
      <point x="354" y="319" type="curve" smooth="yes"/>
      <point x="368" y="304"/>
      <point x="366" y="278"/>
      <point x="350" y="265" type="curve" smooth="yes"/>
      <point x="335" y="251"/>
      <point x="309" y="252"/>
      <point x="296" y="267" type="curve" smooth="yes"/>
      <point x="274" y="291"/>
      <point x="258" y="318"/>
      <point x="258" y="366" type="curve" smooth="yes"/>
      <point x="258" y="424" type="line" smooth="yes"/>
      <point x="258" y="452"/>
      <point x="245" y="475"/>
      <point x="209" y="475" type="curve" smooth="yes"/>
      <point x="190" y="475"/>
      <point x="170" y="471"/>
      <point x="158" y="467" type="curve" smooth="yes"/>
      <point x="139" y="460"/>
      <point x="116" y="472"/>
      <point x="110" y="491" type="curve" smooth="yes"/>
      <point x="103" y="510"/>
      <point x="115" y="533"/>
    </contour>
    <contour>
      <point x="297" y="379" type="curve" smooth="yes"/>
      <point x="275" y="380"/>
      <point x="255" y="382"/>
      <point x="236" y="382" type="curve" smooth="yes"/>
      <point x="199" y="382"/>
      <point x="182" y="376"/>
      <point x="165" y="362" type="curve"/>
      <point x="159" y="358"/>
      <point x="157" y="352"/>
      <point x="157" y="345" type="curve" smooth="yes"/>
      <point x="157" y="337"/>
      <point x="166" y="331"/>
      <point x="179" y="331" type="curve" smooth="yes"/>
      <point x="218" y="331"/>
      <point x="245" y="347"/>
      <point x="270" y="379" type="curve" smooth="yes"/>
      <point x="282" y="395"/>
      <point x="308" y="398"/>
      <point x="324" y="385" type="curve" smooth="yes"/>
      <point x="340" y="373"/>
      <point x="345" y="347"/>
      <point x="332" y="331" type="curve" smooth="yes"/>
      <point x="291" y="277"/>
      <point x="244" y="255"/>
      <point x="179" y="255" type="curve" smooth="yes"/>
      <point x="98" y="255"/>
      <point x="71" y="307"/>
      <point x="71" y="345" type="curve"/>
      <point x="71" y="376"/>
      <point x="83" y="396"/>
      <point x="107" y="418" type="curve" smooth="yes"/>
      <point x="134" y="442"/>
      <point x="173" y="458"/>
      <point x="236" y="458" type="curve" smooth="yes"/>
      <point x="257" y="458"/>
      <point x="277" y="456"/>
      <point x="301" y="455" type="curve" smooth="yes"/>
      <point x="321" y="454"/>
      <point x="338" y="436"/>
      <point x="337" y="415" type="curve" smooth="yes"/>
      <point x="336" y="395"/>
      <point x="318" y="378"/>
    </contour>
  </outline>
</glyph>
<glyph name="logicalnot" format="1">
  <advance width="481"/>
  <unicode hex="00AC"/>
  <outline>
    <contour>
      <point x="109" y="309" type="curve" smooth="yes"/>
      <point x="372" y="309" type="line" smooth="yes"/>
      <point x="396" y="309"/>
      <point x="416" y="289"/>
      <point x="416" y="265" type="curve" smooth="yes"/>
      <point x="416" y="241"/>
      <point x="396" y="221"/>
      <point x="372" y="221" type="curve" smooth="yes"/>
      <point x="109" y="221" type="line" smooth="yes"/>
      <point x="85" y="221"/>
      <point x="65" y="241"/>
      <point x="65" y="265" type="curve" smooth="yes"/>
      <point x="65" y="289"/>
      <point x="85" y="309"/>
    </contour>
    <contour>
      <point x="421" y="259" type="curve" smooth="yes"/>
      <point x="421" y="162" type="line" smooth="yes"/>
      <point x="421" y="138"/>
      <point x="396" y="118"/>
      <point x="372" y="118" type="curve" smooth="yes"/>
      <point x="348" y="118"/>
      <point x="323" y="138"/>
      <point x="323" y="162" type="curve" smooth="yes"/>
      <point x="323" y="259" type="line" smooth="yes"/>
      <point x="323" y="283"/>
      <point x="348" y="303"/>
      <point x="372" y="303" type="curve" smooth="yes"/>
      <point x="396" y="303"/>
      <point x="421" y="283"/>
    </contour>
  </outline>
</glyph>
<glyph name="registered" format="1">
  <advance width="560"/>
  <unicode hex="00AE"/>
  <outline>
    <contour>
      <point x="277" y="565" type="curve" smooth="yes"/>
      <point x="186" y="565"/>
      <point x="128" y="503"/>
      <point x="128" y="418" type="curve" smooth="yes"/>
      <point x="128" y="336"/>
      <point x="187" y="264"/>
      <point x="284" y="264" type="curve" smooth="yes"/>
      <point x="374" y="264"/>
      <point x="438" y="331"/>
      <point x="438" y="415" type="curve" smooth="yes"/>
      <point x="438" y="500"/>
      <point x="374" y="565"/>
    </contour>
    <contour>
      <point x="235" y="426" type="curve" smooth="yes"/>
      <point x="282" y="426" type="line" smooth="yes"/>
      <point x="296" y="426"/>
      <point x="303" y="435"/>
      <point x="303" y="446" type="curve" smooth="yes"/>
      <point x="303" y="457"/>
      <point x="293" y="463"/>
      <point x="282" y="463" type="curve" smooth="yes"/>
      <point x="225" y="463" type="line"/>
      <point x="268" y="501" type="line"/>
      <point x="268" y="332" type="line" smooth="yes"/>
      <point x="268" y="311"/>
      <point x="246" y="294"/>
      <point x="225" y="294" type="curve" smooth="yes"/>
      <point x="204" y="294"/>
      <point x="182" y="311"/>
      <point x="182" y="332" type="curve" smooth="yes"/>
      <point x="182" y="501" type="line" smooth="yes"/>
      <point x="182" y="522"/>
      <point x="201" y="539"/>
      <point x="225" y="539" type="curve" smooth="yes"/>
      <point x="282" y="539" type="line" smooth="yes"/>
      <point x="347" y="539"/>
      <point x="388" y="503"/>
      <point x="388" y="447" type="curve" smooth="yes"/>
      <point x="388" y="395"/>
      <point x="354" y="352"/>
      <point x="282" y="352" type="curve" smooth="yes"/>
      <point x="235" y="352" type="line" smooth="yes"/>
      <point x="214" y="352"/>
      <point x="197" y="369"/>
      <point x="197" y="390" type="curve" smooth="yes"/>
      <point x="197" y="411"/>
      <point x="214" y="426"/>
    </contour>
    <contour>
      <point x="338" y="410" type="curve" smooth="yes"/>
      <point x="385" y="358" type="line" smooth="yes"/>
      <point x="399" y="343"/>
      <point x="397" y="318"/>
      <point x="381" y="304" type="curve" smooth="yes"/>
      <point x="366" y="290"/>
      <point x="341" y="291"/>
      <point x="327" y="306" type="curve" smooth="yes"/>
      <point x="280" y="358" type="line" smooth="yes"/>
      <point x="266" y="373"/>
      <point x="268" y="398"/>
      <point x="284" y="412" type="curve" smooth="yes"/>
      <point x="299" y="426"/>
      <point x="324" y="425"/>
    </contour>
    <contour>
      <point x="277" y="641" type="curve" smooth="yes"/>
      <point x="422" y="641"/>
      <point x="524" y="546"/>
      <point x="524" y="415" type="curve" smooth="yes"/>
      <point x="524" y="283"/>
      <point x="420" y="188"/>
      <point x="284" y="188" type="curve" smooth="yes"/>
      <point x="139" y="188"/>
      <point x="42" y="292"/>
      <point x="42" y="418" type="curve" smooth="yes"/>
      <point x="42" y="551"/>
      <point x="140" y="641"/>
    </contour>
  </outline>
</glyph>
<glyph name="plusminus" format="1">
  <advance width="530"/>
  <unicode hex="00B1"/>
  <outline>
    <contour>
      <point x="96" y="382" type="curve" smooth="yes"/>
      <point x="433" y="382" type="line" smooth="yes"/>
      <point x="457" y="382"/>
      <point x="477" y="362"/>
      <point x="477" y="338" type="curve" smooth="yes"/>
      <point x="477" y="314"/>
      <point x="457" y="294"/>
      <point x="433" y="294" type="curve" smooth="yes"/>
      <point x="96" y="294" type="line" smooth="yes"/>
      <point x="72" y="294"/>
      <point x="52" y="314"/>
      <point x="52" y="338" type="curve" smooth="yes"/>
      <point x="52" y="362"/>
      <point x="72" y="382"/>
    </contour>
    <contour>
      <point x="216" y="224" type="curve" smooth="yes"/>
      <point x="216" y="452" type="line" smooth="yes"/>
      <point x="216" y="476"/>
      <point x="241" y="496"/>
      <point x="265" y="496" type="curve" smooth="yes"/>
      <point x="289" y="496"/>
      <point x="314" y="476"/>
      <point x="314" y="452" type="curve" smooth="yes"/>
      <point x="314" y="224" type="line" smooth="yes"/>
      <point x="314" y="200"/>
      <point x="289" y="180"/>
      <point x="265" y="180" type="curve" smooth="yes"/>
      <point x="241" y="180"/>
      <point x="216" y="200"/>
    </contour>
    <contour>
      <point x="96" y="146" type="curve" smooth="yes"/>
      <point x="433" y="146" type="line" smooth="yes"/>
      <point x="457" y="146"/>
      <point x="477" y="126"/>
      <point x="477" y="102" type="curve" smooth="yes"/>
      <point x="477" y="78"/>
      <point x="457" y="58"/>
      <point x="433" y="58" type="curve" smooth="yes"/>
      <point x="96" y="58" type="line" smooth="yes"/>
      <point x="72" y="58"/>
      <point x="52" y="78"/>
      <point x="52" y="102" type="curve" smooth="yes"/>
      <point x="52" y="126"/>
      <point x="72" y="146"/>
    </contour>
  </outline>
</glyph>
<glyph name="acute" format="1">
  <advance width="490"/>
  <unicode hex="00B4"/>
  <outline>
    <contour>
      <point x="317" y="585" type="curve" smooth="yes"/>
      <point x="289" y="555"/>
      <point x="263" y="526"/>
      <point x="237" y="496" type="curve" smooth="yes"/>
      <point x="223" y="480"/>
      <point x="196" y="479"/>
      <point x="180" y="493" type="curve" smooth="yes"/>
      <point x="163" y="507"/>
      <point x="161" y="534"/>
      <point x="175" y="550" type="curve" smooth="yes"/>
      <point x="201" y="580"/>
      <point x="229" y="611"/>
      <point x="257" y="641" type="curve" smooth="yes"/>
      <point x="272" y="657"/>
      <point x="299" y="657"/>
      <point x="314" y="642" type="curve" smooth="yes"/>
      <point x="330" y="628"/>
      <point x="332" y="601"/>
    </contour>
  </outline>
</glyph>
<glyph name="onehalf" format="1">
  <advance width="780"/>
  <unicode hex="00BD"/>
  <outline>
    <contour>
      <point x="526" y="488" type="curve" smooth="yes"/>
      <point x="243" y="22" type="line" smooth="yes"/>
      <point x="233" y="5"/>
      <point x="207" y="0"/>
      <point x="189" y="11" type="curve" smooth="yes"/>
      <point x="172" y="21"/>
      <point x="164" y="46"/>
      <point x="175" y="64" type="curve" smooth="yes"/>
      <point x="458" y="530" type="line" smooth="yes"/>
      <point x="468" y="547"/>
      <point x="494" y="552"/>
      <point x="512" y="541" type="curve" smooth="yes"/>
      <point x="529" y="531"/>
      <point x="537" y="506"/>
    </contour>
    <contour>
      <point x="245" y="515" type="curve" smooth="yes"/>
      <point x="245" y="268" type="line" smooth="yes"/>
      <point x="245" y="247"/>
      <point x="223" y="230"/>
      <point x="202" y="230" type="curve" smooth="yes"/>
      <point x="181" y="230"/>
      <point x="159" y="247"/>
      <point x="159" y="268" type="curve" smooth="yes"/>
      <point x="159" y="515" type="line" smooth="yes"/>
      <point x="159" y="536"/>
      <point x="181" y="553"/>
      <point x="202" y="553" type="curve" smooth="yes"/>
      <point x="223" y="553"/>
      <point x="245" y="536"/>
    </contour>
    <contour>
      <point x="219" y="484" type="curve" smooth="yes"/>
      <point x="137" y="442" type="line" smooth="yes"/>
      <point x="119" y="433"/>
      <point x="96" y="440"/>
      <point x="86" y="459" type="curve" smooth="yes"/>
      <point x="77" y="477"/>
      <point x="84" y="501"/>
      <point x="103" y="510" type="curve" smooth="yes"/>
      <point x="185" y="552" type="line" smooth="yes"/>
      <point x="203" y="561"/>
      <point x="226" y="554"/>
      <point x="236" y="535" type="curve" smooth="yes"/>
      <point x="245" y="517"/>
      <point x="238" y="493"/>
    </contour>
    <contour>
      <point x="445" y="77" type="curve" smooth="yes"/>
      <point x="534" y="156" type="line" smooth="yes"/>
      <point x="576" y="194"/>
      <point x="593" y="208"/>
      <point x="593" y="232" type="curve" smooth="yes"/>
      <point x="593" y="244"/>
      <point x="578" y="251"/>
      <point x="561" y="251" type="curve" smooth="yes"/>
      <point x="539" y="251"/>
      <point x="522" y="244"/>
      <point x="504" y="233" type="curve" smooth="yes"/>
      <point x="486" y="223"/>
      <point x="462" y="229"/>
      <point x="451" y="246" type="curve" smooth="yes"/>
      <point x="441" y="264"/>
      <point x="447" y="288"/>
      <point x="464" y="299" type="curve" smooth="yes"/>
      <point x="496" y="318"/>
      <point x="525" y="327"/>
      <point x="561" y="327" type="curve" smooth="yes"/>
      <point x="646" y="327"/>
      <point x="679" y="278"/>
      <point x="679" y="232" type="curve" smooth="yes"/>
      <point x="679" y="192"/>
      <point x="660" y="166"/>
      <point x="586" y="98" type="curve" smooth="yes"/>
      <point x="497" y="19" type="line" smooth="yes"/>
      <point x="481" y="5"/>
      <point x="456" y="7"/>
      <point x="443" y="23" type="curve" smooth="yes"/>
      <point x="429" y="38"/>
      <point x="430" y="63"/>
    </contour>
    <contour>
      <point x="655" y="5" type="curve" smooth="yes"/>
      <point x="466" y="5" type="line" smooth="yes"/>
      <point x="445" y="5"/>
      <point x="428" y="22"/>
      <point x="428" y="43" type="curve" smooth="yes"/>
      <point x="428" y="64"/>
      <point x="445" y="81"/>
      <point x="466" y="81" type="curve" smooth="yes"/>
      <point x="655" y="81" type="line" smooth="yes"/>
      <point x="676" y="81"/>
      <point x="693" y="64"/>
      <point x="693" y="43" type="curve" smooth="yes"/>
      <point x="693" y="22"/>
      <point x="676" y="5"/>
    </contour>
  </outline>
</glyph>
<glyph name="threequarters" format="1">
  <advance width="826"/>
  <unicode hex="00BE"/>
  <outline>
    <contour>
      <point x="620" y="488" type="curve" smooth="yes"/>
      <point x="337" y="22" type="line" smooth="yes"/>
      <point x="327" y="5"/>
      <point x="301" y="0"/>
      <point x="283" y="11" type="curve" smooth="yes"/>
      <point x="266" y="21"/>
      <point x="258" y="46"/>
      <point x="269" y="64" type="curve" smooth="yes"/>
      <point x="552" y="530" type="line" smooth="yes"/>
      <point x="562" y="547"/>
      <point x="588" y="552"/>
      <point x="606" y="541" type="curve" smooth="yes"/>
      <point x="623" y="531"/>
      <point x="631" y="506"/>
    </contour>
    <contour>
      <point x="692" y="294" type="curve" smooth="yes"/>
      <point x="692" y="44" type="line" smooth="yes"/>
      <point x="692" y="23"/>
      <point x="670" y="6"/>
      <point x="649" y="6" type="curve" smooth="yes"/>
      <point x="628" y="6"/>
      <point x="606" y="23"/>
      <point x="606" y="44" type="curve" smooth="yes"/>
      <point x="606" y="294" type="line" smooth="yes"/>
      <point x="606" y="315"/>
      <point x="628" y="332"/>
      <point x="649" y="332" type="curve" smooth="yes"/>
      <point x="670" y="332"/>
      <point x="692" y="315"/>
    </contour>
    <contour>
      <point x="674" y="263" type="curve" smooth="yes"/>
      <point x="520" y="90" type="line" smooth="yes"/>
      <point x="507" y="75"/>
      <point x="481" y="74"/>
      <point x="466" y="88" type="curve" smooth="yes"/>
      <point x="450" y="101"/>
      <point x="448" y="127"/>
      <point x="462" y="142" type="curve" smooth="yes"/>
      <point x="616" y="315" type="line" smooth="yes"/>
      <point x="629" y="330"/>
      <point x="655" y="331"/>
      <point x="670" y="317" type="curve" smooth="yes"/>
      <point x="686" y="304"/>
      <point x="688" y="278"/>
    </contour>
    <contour>
      <point x="496" y="154" type="curve" smooth="yes"/>
      <point x="711" y="154" type="line" smooth="yes"/>
      <point x="732" y="154"/>
      <point x="749" y="137"/>
      <point x="749" y="116" type="curve" smooth="yes"/>
      <point x="749" y="95"/>
      <point x="732" y="78"/>
      <point x="711" y="78" type="curve" smooth="yes"/>
      <point x="496" y="78" type="line" smooth="yes"/>
      <point x="475" y="78"/>
      <point x="458" y="95"/>
      <point x="458" y="116" type="curve" smooth="yes"/>
      <point x="458" y="137"/>
      <point x="475" y="154"/>
    </contour>
    <contour>
      <point x="136" y="547" type="curve" smooth="yes"/>
      <point x="308" y="547" type="line" smooth="yes"/>
      <point x="329" y="547"/>
      <point x="346" y="530"/>
      <point x="346" y="509" type="curve" smooth="yes"/>
      <point x="346" y="488"/>
      <point x="329" y="471"/>
      <point x="308" y="471" type="curve" smooth="yes"/>
      <point x="136" y="471" type="line" smooth="yes"/>
      <point x="115" y="471"/>
      <point x="98" y="488"/>
      <point x="98" y="509" type="curve" smooth="yes"/>
      <point x="98" y="530"/>
      <point x="115" y="547"/>
    </contour>
    <contour>
      <point x="138" y="309" type="curve" smooth="yes"/>
      <point x="159" y="302"/>
      <point x="186" y="296"/>
      <point x="217" y="296" type="curve" smooth="yes"/>
      <point x="247" y="296"/>
      <point x="274" y="305"/>
      <point x="274" y="327" type="curve" smooth="yes"/>
      <point x="274" y="349"/>
      <point x="249" y="356"/>
      <point x="224" y="356" type="curve" smooth="yes"/>
      <point x="202" y="356"/>
      <point x="184" y="354"/>
      <point x="174" y="351" type="curve" smooth="yes"/>
      <point x="155" y="344"/>
      <point x="132" y="356"/>
      <point x="126" y="375" type="curve" smooth="yes"/>
      <point x="119" y="394"/>
      <point x="131" y="417"/>
      <point x="150" y="423" type="curve" smooth="yes"/>
      <point x="164" y="428"/>
      <point x="190" y="432"/>
      <point x="224" y="432" type="curve" smooth="yes"/>
      <point x="315" y="432"/>
      <point x="360" y="385"/>
      <point x="360" y="327" type="curve" smooth="yes"/>
      <point x="360" y="271"/>
      <point x="321" y="220"/>
      <point x="217" y="220" type="curve" smooth="yes"/>
      <point x="176" y="220"/>
      <point x="141" y="228"/>
      <point x="114" y="237" type="curve" smooth="yes"/>
      <point x="95" y="243"/>
      <point x="83" y="266"/>
      <point x="90" y="285" type="curve" smooth="yes"/>
      <point x="96" y="304"/>
      <point x="119" y="316"/>
    </contour>
    <contour>
      <point x="328" y="475" type="curve" smooth="yes"/>
      <point x="189" y="359" type="line" smooth="yes"/>
      <point x="173" y="346"/>
      <point x="148" y="349"/>
      <point x="135" y="365" type="curve" smooth="yes"/>
      <point x="122" y="380"/>
      <point x="124" y="405"/>
      <point x="139" y="419" type="curve" smooth="yes"/>
      <point x="278" y="535" type="line" smooth="yes"/>
      <point x="294" y="548"/>
      <point x="319" y="545"/>
      <point x="332" y="529" type="curve" smooth="yes"/>
      <point x="345" y="514"/>
      <point x="343" y="489"/>
    </contour>
  </outline>
</glyph>
<glyph name="AE" format="1">
  <advance width="755"/>
  <unicode hex="00C6"/>
  <outline>
    <contour>
      <point x="394" y="484" type="curve" smooth="yes"/>
      <point x="291" y="320"/>
      <point x="164" y="138"/>
      <point x="82" y="17" type="curve" smooth="yes"/>
      <point x="69" y="-3"/>
      <point x="38" y="-7"/>
      <point x="18" y="7" type="curve" smooth="yes"/>
      <point x="-1" y="20"/>
      <point x="-9" y="50"/>
      <point x="4" y="69" type="curve" smooth="yes"/>
      <point x="86" y="190"/>
      <point x="211" y="372"/>
      <point x="314" y="534" type="curve" smooth="yes"/>
      <point x="327" y="554"/>
      <point x="357" y="559"/>
      <point x="378" y="546" type="curve" smooth="yes"/>
      <point x="398" y="534"/>
      <point x="407" y="504"/>
    </contour>
    <contour>
      <point x="143" y="226" type="curve" smooth="yes"/>
      <point x="392" y="226" type="line" smooth="yes"/>
      <point x="416" y="226"/>
      <point x="436" y="206"/>
      <point x="436" y="182" type="curve" smooth="yes"/>
      <point x="436" y="158"/>
      <point x="416" y="138"/>
      <point x="392" y="138" type="curve" smooth="yes"/>
      <point x="143" y="138" type="line" smooth="yes"/>
      <point x="119" y="138"/>
      <point x="99" y="158"/>
      <point x="99" y="182" type="curve" smooth="yes"/>
      <point x="99" y="206"/>
      <point x="119" y="226"/>
    </contour>
    <contour>
      <point x="410" y="465" type="curve" smooth="yes"/>
      <point x="359" y="465" type="line" smooth="yes"/>
      <point x="335" y="465"/>
      <point x="315" y="485"/>
      <point x="315" y="509" type="curve" smooth="yes"/>
      <point x="315" y="533"/>
      <point x="335" y="553"/>
      <point x="359" y="553" type="curve" smooth="yes"/>
      <point x="410" y="553" type="line" smooth="yes"/>
      <point x="434" y="553"/>
      <point x="454" y="533"/>
      <point x="454" y="509" type="curve" smooth="yes"/>
      <point x="454" y="485"/>
      <point x="434" y="465"/>
    </contour>
    <component base="E" xOffset="270"/>
    <component base="E" xOffset="270"/>
  </outline>
</glyph>
<glyph name="Eth" format="1">
  <advance width="627"/>
  <unicode hex="00D0"/>
  <outline>
    <contour>
      <point x="64" y="324" type="curve" smooth="yes"/>
      <point x="310" y="324" type="line" smooth="yes"/>
      <point x="334" y="324"/>
      <point x="354" y="304"/>
      <point x="354" y="280" type="curve" smooth="yes"/>
      <point x="354" y="256"/>
      <point x="334" y="236"/>
      <point x="310" y="236" type="curve" smooth="yes"/>
      <point x="64" y="236" type="line" smooth="yes"/>
      <point x="40" y="236"/>
      <point x="20" y="256"/>
      <point x="20" y="280" type="curve" smooth="yes"/>
      <point x="20" y="304"/>
      <point x="40" y="324"/>
    </contour>
    <component base="D" xOffset="15"/>
    <component base="D" xOffset="15"/>
  </outline>
</glyph>
<glyph name="Oslash" format="1">
  <advance width="640"/>
  <unicode hex="00D8"/>
  <outline>
    <contour>
      <point x="560" y="478" type="curve" smooth="yes"/>
      <point x="150" y="-6" type="line" smooth="yes"/>
      <point x="135" y="-24"/>
      <point x="105" y="-25"/>
      <point x="87" y="-10" type="curve" smooth="yes"/>
      <point x="68" y="6"/>
      <point x="64" y="36"/>
      <point x="80" y="54" type="curve" smooth="yes"/>
      <point x="490" y="538" type="line" smooth="yes"/>
      <point x="505" y="556"/>
      <point x="535" y="557"/>
      <point x="553" y="542" type="curve" smooth="yes"/>
      <point x="572" y="526"/>
      <point x="576" y="496"/>
    </contour>
    <component base="O"/>
    <component base="O"/>
  </outline>
</glyph>
<glyph name="eth" format="1">
  <advance width="484"/>
  <unicode hex="00F0"/>
  <outline>
    <contour>
      <point x="362" y="245" type="curve" smooth="yes"/>
      <point x="338" y="267"/>
      <point x="286" y="291"/>
      <point x="232" y="291" type="curve" smooth="yes"/>
      <point x="167" y="291"/>
      <point x="120" y="247"/>
      <point x="120" y="184" type="curve"/>
      <point x="120" y="129"/>
      <point x="161" y="83"/>
      <point x="231" y="83" type="curve" smooth="yes"/>
      <point x="313" y="83"/>
      <point x="354" y="140"/>
      <point x="354" y="224" type="curve" smooth="yes"/>
      <point x="354" y="311"/>
      <point x="312" y="398"/>
      <point x="181" y="503" type="curve" smooth="yes"/>
      <point x="163" y="518"/>
      <point x="160" y="547"/>
      <point x="175" y="566" type="curve" smooth="yes"/>
      <point x="190" y="584"/>
      <point x="218" y="588"/>
      <point x="237" y="573" type="curve" smooth="yes"/>
      <point x="400" y="442"/>
      <point x="452" y="333"/>
      <point x="452" y="224" type="curve" smooth="yes"/>
      <point x="452" y="72"/>
      <point x="363" y="-5"/>
      <point x="231" y="-5" type="curve" smooth="yes"/>
      <point x="101" y="-5"/>
      <point x="22" y="81"/>
      <point x="22" y="184" type="curve" smooth="yes"/>
      <point x="22" y="303"/>
      <point x="113" y="379"/>
      <point x="232" y="379" type="curve" smooth="yes"/>
      <point x="310" y="379"/>
      <point x="386" y="343"/>
      <point x="422" y="311" type="curve" smooth="yes"/>
      <point x="440" y="295"/>
      <point x="441" y="266"/>
      <point x="425" y="249" type="curve" smooth="yes"/>
      <point x="409" y="231"/>
      <point x="380" y="229"/>
    </contour>
    <component base="ethslash"/>
    <component base="ethslash"/>
  </outline>
</glyph>
<glyph name="divide" format="1">
  <advance width="530"/>
  <unicode hex="00F7"/>
  <outline>
    <contour>
      <point x="267" y="201" type="curve" smooth="yes"/>
      <point x="302" y="201"/>
      <point x="333" y="181"/>
      <point x="333" y="134" type="curve" smooth="yes"/>
      <point x="333" y="81"/>
      <point x="303" y="67"/>
      <point x="268" y="67" type="curve" smooth="yes"/>
      <point x="236" y="67"/>
      <point x="201" y="86"/>
      <point x="201" y="134" type="curve" smooth="yes"/>
      <point x="201" y="181"/>
      <point x="229" y="201"/>
    </contour>
    <contour>
      <point x="267" y="490" type="curve" smooth="yes"/>
      <point x="302" y="490"/>
      <point x="333" y="470"/>
      <point x="333" y="423" type="curve" smooth="yes"/>
      <point x="333" y="370"/>
      <point x="303" y="356"/>
      <point x="268" y="356" type="curve" smooth="yes"/>
      <point x="236" y="356"/>
      <point x="201" y="375"/>
      <point x="201" y="423" type="curve" smooth="yes"/>
      <point x="201" y="470"/>
      <point x="229" y="490"/>
    </contour>
    <contour>
      <point x="96" y="324" type="curve" smooth="yes"/>
      <point x="433" y="324" type="line" smooth="yes"/>
      <point x="457" y="324"/>
      <point x="477" y="304"/>
      <point x="477" y="280" type="curve" smooth="yes"/>
      <point x="477" y="256"/>
      <point x="457" y="236"/>
      <point x="433" y="236" type="curve" smooth="yes"/>
      <point x="96" y="236" type="line" smooth="yes"/>
      <point x="72" y="236"/>
      <point x="52" y="256"/>
      <point x="52" y="280" type="curve" smooth="yes"/>
      <point x="52" y="304"/>
      <point x="72" y="324"/>
    </contour>
  </outline>
</glyph>
<glyph name="oslash" format="1">
  <advance width="500"/>
  <unicode hex="00F8"/>
  <outline>
    <contour>
      <point x="46" y="76" type="curve" smooth="yes"/>
      <point x="387" y="404" type="line" smooth="yes"/>
      <point x="404" y="420"/>
      <point x="434" y="419"/>
      <point x="451" y="402" type="curve" smooth="yes"/>
      <point x="467" y="384"/>
      <point x="468" y="355"/>
      <point x="451" y="338" type="curve" smooth="yes"/>
      <point x="110" y="10" type="line" smooth="yes"/>
      <point x="93" y="-6"/>
      <point x="63" y="-5"/>
      <point x="46" y="12" type="curve" smooth="yes"/>
      <point x="30" y="30"/>
      <point x="29" y="59"/>
    </contour>
    <component base="o" xOffset="3"/>
    <component base="o" xOffset="3"/>
  </outline>
</glyph>
<glyph name="thorn" format="1">
  <advance width="503"/>
  <unicode hex="00FE"/>
  <outline>
    <contour>
      <point x="61" y="-148" type="curve" smooth="yes"/>
      <point x="61" y="525" type="line" smooth="yes"/>
      <point x="61" y="549"/>
      <point x="86" y="569"/>
      <point x="110" y="569" type="curve" smooth="yes"/>
      <point x="134" y="569"/>
      <point x="159" y="549"/>
      <point x="159" y="525" type="curve" smooth="yes"/>
      <point x="159" y="-148" type="line" smooth="yes"/>
      <point x="159" y="-172"/>
      <point x="134" y="-192"/>
      <point x="110" y="-192" type="curve" smooth="yes"/>
      <point x="86" y="-192"/>
      <point x="61" y="-172"/>
    </contour>
    <contour>
      <point x="138" y="132" type="curve" smooth="yes"/>
      <point x="176" y="101"/>
      <point x="220" y="79"/>
      <point x="265" y="79" type="curve" smooth="yes"/>
      <point x="337" y="79"/>
      <point x="381" y="134"/>
      <point x="381" y="200" type="curve" smooth="yes"/>
      <point x="381" y="272"/>
      <point x="336" y="320"/>
      <point x="277" y="320" type="curve" smooth="yes"/>
      <point x="225" y="320"/>
      <point x="183" y="281"/>
      <point x="148" y="234" type="curve" smooth="yes"/>
      <point x="134" y="215"/>
      <point x="104" y="211"/>
      <point x="85" y="226" type="curve" smooth="yes"/>
      <point x="66" y="240"/>
      <point x="60" y="269"/>
      <point x="74" y="288" type="curve" smooth="yes"/>
      <point x="129" y="363"/>
      <point x="199" y="408"/>
      <point x="277" y="408" type="curve" smooth="yes"/>
      <point x="380" y="408"/>
      <point x="479" y="340"/>
      <point x="479" y="200" type="curve" smooth="yes"/>
      <point x="479" y="78"/>
      <point x="389" y="-9"/>
      <point x="265" y="-9" type="curve" smooth="yes"/>
      <point x="202" y="-9"/>
      <point x="136" y="19"/>
      <point x="82" y="62" type="curve" smooth="yes"/>
      <point x="64" y="77"/>
      <point x="61" y="106"/>
      <point x="76" y="125" type="curve" smooth="yes"/>
      <point x="91" y="143"/>
      <point x="119" y="147"/>
    </contour>
  </outline>
</glyph>
<glyph name="dcaron" format="1">
  <advance width="631"/>
  <unicode hex="010F"/>
  <outline>
    <contour>
      <point x="634" y="552" type="curve" smooth="yes"/>
      <point x="614" y="419" type="line" smooth="yes"/>
      <point x="611" y="395"/>
      <point x="583" y="379"/>
      <point x="559" y="382" type="curve" smooth="yes"/>
      <point x="536" y="386"/>
      <point x="514" y="410"/>
      <point x="518" y="433" type="curve" smooth="yes"/>
      <point x="538" y="566" type="line" smooth="yes"/>
      <point x="541" y="590"/>
      <point x="569" y="606"/>
      <point x="593" y="603" type="curve" smooth="yes"/>
      <point x="616" y="599"/>
      <point x="638" y="575"/>
    </contour>
    <component base="d"/>
    <component base="d"/>
  </outline>
</glyph>
<glyph name="Lcaron" format="1">
  <advance width="459"/>
  <unicode hex="013D"/>
  <outline>
    <contour>
      <point x="369" y="514" type="curve" smooth="yes"/>
      <point x="349" y="381" type="line" smooth="yes"/>
      <point x="346" y="357"/>
      <point x="318" y="341"/>
      <point x="294" y="344" type="curve" smooth="yes"/>
      <point x="271" y="348"/>
      <point x="249" y="372"/>
      <point x="253" y="395" type="curve" smooth="yes"/>
      <point x="273" y="528" type="line" smooth="yes"/>
      <point x="276" y="552"/>
      <point x="304" y="568"/>
      <point x="328" y="565" type="curve" smooth="yes"/>
      <point x="351" y="561"/>
      <point x="373" y="537"/>
    </contour>
    <component base="L"/>
    <component base="L"/>
  </outline>
</glyph>
<glyph name="lcaron" format="1">
  <advance width="351"/>
  <unicode hex="013E"/>
  <outline>
    <contour>
      <point x="354" y="552" type="curve" smooth="yes"/>
      <point x="334" y="419" type="line" smooth="yes"/>
      <point x="331" y="395"/>
      <point x="303" y="379"/>
      <point x="279" y="382" type="curve" smooth="yes"/>
      <point x="256" y="386"/>
      <point x="234" y="410"/>
      <point x="238" y="433" type="curve" smooth="yes"/>
      <point x="258" y="566" type="line" smooth="yes"/>
      <point x="261" y="590"/>
      <point x="289" y="606"/>
      <point x="313" y="603" type="curve" smooth="yes"/>
      <point x="336" y="599"/>
      <point x="358" y="575"/>
    </contour>
    <component base="l"/>
    <component base="l"/>
  </outline>
</glyph>
<glyph name="Lslash" format="1">
  <advance width="474"/>
  <unicode hex="0141"/>
  <outline>
    <contour>
      <point x="301" y="314" type="curve" smooth="yes"/>
      <point x="86" y="178" type="line" smooth="yes"/>
      <point x="66" y="166"/>
      <point x="38" y="172"/>
      <point x="25" y="192" type="curve" smooth="yes"/>
      <point x="12" y="213"/>
      <point x="18" y="241"/>
      <point x="38" y="254" type="curve" smooth="yes"/>
      <point x="253" y="390" type="line" smooth="yes"/>
      <point x="273" y="402"/>
      <point x="301" y="396"/>
      <point x="314" y="376" type="curve" smooth="yes"/>
      <point x="327" y="355"/>
      <point x="321" y="327"/>
    </contour>
    <component base="L" xOffset="15"/>
    <component base="L" xOffset="15"/>
  </outline>
</glyph>
<glyph name="lslash" format="1">
  <advance width="244"/>
  <unicode hex="0142"/>
  <outline>
    <contour>
      <point x="227" y="324" type="curve" smooth="yes"/>
      <point x="71" y="216" type="line" smooth="yes"/>
      <point x="51" y="203"/>
      <point x="22" y="208"/>
      <point x="9" y="228" type="curve" smooth="yes"/>
      <point x="-5" y="247"/>
      <point x="0" y="276"/>
      <point x="19" y="290" type="curve" smooth="yes"/>
      <point x="175" y="398" type="line" smooth="yes"/>
      <point x="195" y="411"/>
      <point x="224" y="406"/>
      <point x="237" y="386" type="curve" smooth="yes"/>
      <point x="251" y="367"/>
      <point x="246" y="338"/>
    </contour>
    <component base="l" xOffset="6"/>
    <component base="l" xOffset="6"/>
  </outline>
</glyph>
<glyph name="OE" format="1">
  <advance width="811"/>
  <unicode hex="0152"/>
  <outline>
    <contour>
      <point x="455" y="465" type="curve" smooth="yes"/>
      <point x="322" y="465" type="line" smooth="yes"/>
      <point x="207" y="465"/>
      <point x="135" y="384"/>
      <point x="135" y="273" type="curve" smooth="yes"/>
      <point x="135" y="172"/>
      <point x="210" y="87"/>
      <point x="322" y="87" type="curve" smooth="yes"/>
      <point x="484" y="87" type="line" smooth="yes"/>
      <point x="508" y="87"/>
      <point x="528" y="67"/>
      <point x="528" y="43" type="curve" smooth="yes"/>
      <point x="528" y="19"/>
      <point x="508" y="-1"/>
      <point x="484" y="-1" type="curve" smooth="yes"/>
      <point x="322" y="-1" type="line" smooth="yes"/>
      <point x="156" y="-1"/>
      <point x="37" y="118"/>
      <point x="37" y="273" type="curve"/>
      <point x="37" y="442"/>
      <point x="155" y="553"/>
      <point x="322" y="553" type="curve" smooth="yes"/>
      <point x="455" y="553" type="line" smooth="yes"/>
      <point x="479" y="553"/>
      <point x="499" y="533"/>
      <point x="499" y="509" type="curve" smooth="yes"/>
      <point x="499" y="485"/>
      <point x="479" y="465"/>
    </contour>
    <component base="E" xOffset="324"/>
  </outline>
</glyph>
<glyph name="tcaron" format="1">
  <advance width="354"/>
  <unicode hex="0165"/>
  <outline>
    <contour>
      <point x="348" y="615" type="curve" smooth="yes"/>
      <point x="326" y="493" type="line" smooth="yes"/>
      <point x="322" y="470"/>
      <point x="294" y="454"/>
      <point x="270" y="459" type="curve" smooth="yes"/>
      <point x="247" y="463"/>
      <point x="226" y="487"/>
      <point x="230" y="511" type="curve" smooth="yes"/>
      <point x="252" y="633" type="line" smooth="yes"/>
      <point x="256" y="656"/>
      <point x="284" y="672"/>
      <point x="308" y="667" type="curve" smooth="yes"/>
      <point x="331" y="663"/>
      <point x="352" y="639"/>
    </contour>
    <component base="t"/>
    <component base="t"/>
  </outline>
</glyph>
<glyph name="florin" format="1">
  <advance width="332"/>
  <unicode hex="0192"/>
  <outline>
    <contour>
      <point x="315" y="508" type="curve" smooth="yes"/>
      <point x="253" y="505"/>
      <point x="230" y="473"/>
      <point x="226" y="430" type="curve" smooth="yes"/>
      <point x="171" y="-117" type="line" smooth="yes"/>
      <point x="168" y="-141"/>
      <point x="141" y="-158"/>
      <point x="118" y="-156" type="curve" smooth="yes"/>
      <point x="94" y="-153"/>
      <point x="71" y="-131"/>
      <point x="73" y="-107" type="curve" smooth="yes"/>
      <point x="128" y="440" type="line" smooth="yes"/>
      <point x="138" y="527"/>
      <point x="185" y="589"/>
      <point x="311" y="596" type="curve" smooth="yes"/>
      <point x="334" y="597"/>
      <point x="356" y="578"/>
      <point x="357" y="554" type="curve" smooth="yes"/>
      <point x="358" y="531"/>
      <point x="339" y="509"/>
    </contour>
    <contour>
      <point x="69" y="409" type="curve" smooth="yes"/>
      <point x="295" y="409" type="line" smooth="yes"/>
      <point x="319" y="409"/>
      <point x="339" y="389"/>
      <point x="339" y="365" type="curve" smooth="yes"/>
      <point x="339" y="341"/>
      <point x="319" y="321"/>
      <point x="295" y="321" type="curve" smooth="yes"/>
      <point x="69" y="321" type="line" smooth="yes"/>
      <point x="45" y="321"/>
      <point x="25" y="341"/>
      <point x="25" y="365" type="curve" smooth="yes"/>
      <point x="25" y="389"/>
      <point x="45" y="409"/>
    </contour>
  </outline>
</glyph>
<glyph name="dotaccent" format="1">
  <advance width="490"/>
  <unicode hex="02D9"/>
  <outline>
    <contour>
      <point x="236" y="632" type="curve" smooth="yes"/>
      <point x="265" y="632"/>
      <point x="300" y="614"/>
      <point x="300" y="565" type="curve" smooth="yes"/>
      <point x="300" y="520"/>
      <point x="267" y="500"/>
      <point x="236" y="500" type="curve" smooth="yes"/>
      <point x="202" y="500"/>
      <point x="170" y="523"/>
      <point x="170" y="565" type="curve" smooth="yes"/>
      <point x="170" y="610"/>
      <point x="204" y="632"/>
    </contour>
  </outline>
</glyph>
<glyph name="ring" format="1">
  <advance width="490"/>
  <unicode hex="02DA"/>
  <outline>
    <contour>
      <point x="371" y="563" type="curve" smooth="yes"/>
      <point x="371" y="509"/>
      <point x="326" y="457"/>
      <point x="250" y="457" type="curve" smooth="yes"/>
      <point x="177" y="457"/>
      <point x="131" y="511"/>
      <point x="131" y="563" type="curve" smooth="yes"/>
      <point x="131" y="616"/>
      <point x="177" y="669"/>
      <point x="250" y="669" type="curve" smooth="yes"/>
      <point x="326" y="669"/>
      <point x="371" y="619"/>
    </contour>
    <contour>
      <point x="289" y="563" type="curve" smooth="yes"/>
      <point x="289" y="581"/>
      <point x="274" y="597"/>
      <point x="250" y="597" type="curve" smooth="yes"/>
      <point x="227" y="597"/>
      <point x="213" y="580"/>
      <point x="213" y="563" type="curve" smooth="yes"/>
      <point x="213" y="547"/>
      <point x="227" y="529"/>
      <point x="250" y="529" type="curve" smooth="yes"/>
      <point x="274" y="529"/>
      <point x="289" y="545"/>
    </contour>
  </outline>
</glyph>
<glyph name="tilde" format="1">
  <advance width="490"/>
  <unicode hex="02DC"/>
  <outline>
    <contour>
      <point x="101" y="564" type="curve" smooth="yes"/>
      <point x="131" y="606"/>
      <point x="166" y="626"/>
      <point x="195" y="626" type="curve" smooth="yes"/>
      <point x="220" y="626"/>
      <point x="239" y="616"/>
      <point x="271" y="593" type="curve" smooth="yes"/>
      <point x="281" y="585"/>
      <point x="289" y="576"/>
      <point x="299" y="576" type="curve" smooth="yes"/>
      <point x="310" y="576"/>
      <point x="314" y="594"/>
      <point x="322" y="606" type="curve" smooth="yes"/>
      <point x="334" y="624"/>
      <point x="361" y="627"/>
      <point x="379" y="615" type="curve" smooth="yes"/>
      <point x="396" y="603"/>
      <point x="403" y="576"/>
      <point x="390" y="558" type="curve" smooth="yes"/>
      <point x="358" y="512"/>
      <point x="330" y="496"/>
      <point x="299" y="496" type="curve" smooth="yes"/>
      <point x="275" y="496"/>
      <point x="253" y="507"/>
      <point x="223" y="527" type="curve" smooth="yes"/>
      <point x="211" y="536"/>
      <point x="206" y="546"/>
      <point x="195" y="546" type="curve" smooth="yes"/>
      <point x="184" y="546"/>
      <point x="177" y="528"/>
      <point x="169" y="516" type="curve" smooth="yes"/>
      <point x="157" y="498"/>
      <point x="130" y="495"/>
      <point x="112" y="507" type="curve" smooth="yes"/>
      <point x="94" y="520"/>
      <point x="88" y="546"/>
    </contour>
  </outline>
</glyph>
<glyph name="zerowidthnonjoiner" format="1">
  <advance width="0"/>
  <unicode hex="200C"/>
  <outline>
    <contour>
      <point x="44" y="717" type="curve" smooth="yes"/>
      <point x="44" y="-270" type="line" smooth="yes"/>
      <point x="44" y="-294"/>
      <point x="19" y="-314"/>
      <point x="-5" y="-314" type="curve" smooth="yes"/>
      <point x="-29" y="-314"/>
      <point x="-54" y="-294"/>
      <point x="-54" y="-270" type="curve" smooth="yes"/>
      <point x="-54" y="717" type="line" smooth="yes"/>
      <point x="-54" y="741"/>
      <point x="-29" y="761"/>
      <point x="-5" y="761" type="curve" smooth="yes"/>
      <point x="19" y="761"/>
      <point x="44" y="741"/>
    </contour>
  </outline>
</glyph>
<glyph name="zerowidthjoiner" format="1">
  <advance width="0"/>
  <unicode hex="200D"/>
  <outline>
    <contour>
      <point x="44" y="640" type="curve" smooth="yes"/>
      <point x="44" y="-270" type="line" smooth="yes"/>
      <point x="44" y="-294"/>
      <point x="19" y="-314"/>
      <point x="-5" y="-314" type="curve" smooth="yes"/>
      <point x="-29" y="-314"/>
      <point x="-54" y="-294"/>
      <point x="-54" y="-270" type="curve" smooth="yes"/>
      <point x="-54" y="640" type="line" smooth="yes"/>
      <point x="-54" y="664"/>
      <point x="-29" y="684"/>
      <point x="-5" y="684" type="curve" smooth="yes"/>
      <point x="19" y="684"/>
      <point x="44" y="664"/>
    </contour>
    <contour>
      <point x="-69" y="764" type="curve" smooth="yes"/>
      <point x="121" y="582" type="line" smooth="yes"/>
      <point x="138" y="566"/>
      <point x="138" y="537"/>
      <point x="122" y="520" type="curve" smooth="yes"/>
      <point x="105" y="502"/>
      <point x="76" y="501"/>
      <point x="59" y="518" type="curve" smooth="yes"/>
      <point x="-131" y="700" type="line" smooth="yes"/>
      <point x="-148" y="716"/>
      <point x="-148" y="745"/>
      <point x="-132" y="762" type="curve" smooth="yes"/>
      <point x="-115" y="780"/>
      <point x="-86" y="781"/>
    </contour>
    <contour>
      <point x="-131" y="582" type="curve" smooth="yes"/>
      <point x="59" y="764" type="line" smooth="yes"/>
      <point x="76" y="781"/>
      <point x="105" y="780"/>
      <point x="122" y="762" type="curve" smooth="yes"/>
      <point x="138" y="745"/>
      <point x="138" y="716"/>
      <point x="121" y="700" type="curve" smooth="yes"/>
      <point x="-69" y="518" type="line" smooth="yes"/>
      <point x="-86" y="501"/>
      <point x="-115" y="502"/>
      <point x="-132" y="520" type="curve" smooth="yes"/>
      <point x="-148" y="537"/>
      <point x="-148" y="566"/>
    </contour>
  </outline>
</glyph>
<glyph name="quoteleft" format="1">
  <advance width="245"/>
  <unicode hex="2018"/>
  <outline>
    <contour>
      <point x="120" y="384" type="curve" smooth="yes"/>
      <point x="88" y="426"/>
      <point x="66" y="479"/>
      <point x="66" y="534" type="curve" smooth="yes"/>
      <point x="66" y="558"/>
      <point x="70" y="580"/>
      <point x="76" y="596" type="curve" smooth="yes"/>
      <point x="83" y="619"/>
      <point x="112" y="630"/>
      <point x="135" y="623" type="curve" smooth="yes"/>
      <point x="157" y="615"/>
      <point x="174" y="588"/>
      <point x="166" y="566" type="curve" smooth="yes"/>
      <point x="164" y="558"/>
      <point x="164" y="546"/>
      <point x="164" y="534" type="curve" smooth="yes"/>
      <point x="164" y="501"/>
      <point x="172" y="466"/>
      <point x="192" y="440" type="curve" smooth="yes"/>
      <point x="207" y="421"/>
      <point x="202" y="391"/>
      <point x="183" y="377" type="curve" smooth="yes"/>
      <point x="164" y="363"/>
      <point x="134" y="365"/>
    </contour>
  </outline>
</glyph>
<glyph name="quoteright" format="1">
  <advance width="245"/>
  <unicode hex="2019"/>
  <outline>
    <contour>
      <point x="169" y="596" type="curve" smooth="yes"/>
      <point x="175" y="580"/>
      <point x="179" y="558"/>
      <point x="179" y="534" type="curve" smooth="yes"/>
      <point x="179" y="479"/>
      <point x="157" y="426"/>
      <point x="125" y="384" type="curve" smooth="yes"/>
      <point x="111" y="365"/>
      <point x="81" y="363"/>
      <point x="62" y="377" type="curve" smooth="yes"/>
      <point x="43" y="391"/>
      <point x="38" y="421"/>
      <point x="53" y="440" type="curve" smooth="yes"/>
      <point x="73" y="466"/>
      <point x="81" y="501"/>
      <point x="81" y="534" type="curve"/>
      <point x="81" y="546"/>
      <point x="81" y="558"/>
      <point x="79" y="566" type="curve" smooth="yes"/>
      <point x="71" y="588"/>
      <point x="88" y="615"/>
      <point x="110" y="623" type="curve" smooth="yes"/>
      <point x="133" y="630"/>
      <point x="162" y="619"/>
    </contour>
  </outline>
</glyph>
<glyph name="daggerdbl" format="1">
  <advance width="492"/>
  <unicode hex="2021"/>
  <outline>
    <contour>
      <point x="295" y="509" type="curve" smooth="yes"/>
      <point x="295" y="43" type="line" smooth="yes"/>
      <point x="295" y="19"/>
      <point x="270" y="-1"/>
      <point x="246" y="-1" type="curve" smooth="yes"/>
      <point x="222" y="-1"/>
      <point x="197" y="19"/>
      <point x="197" y="43" type="curve" smooth="yes"/>
      <point x="197" y="509" type="line" smooth="yes"/>
      <point x="197" y="533"/>
      <point x="222" y="553"/>
      <point x="246" y="553" type="curve" smooth="yes"/>
      <point x="270" y="553"/>
      <point x="295" y="533"/>
    </contour>
    <contour>
      <point x="95" y="430" type="curve" smooth="yes"/>
      <point x="397" y="430" type="line" smooth="yes"/>
      <point x="421" y="430"/>
      <point x="441" y="410"/>
      <point x="441" y="386" type="curve" smooth="yes"/>
      <point x="441" y="362"/>
      <point x="421" y="342"/>
      <point x="397" y="342" type="curve" smooth="yes"/>
      <point x="95" y="342" type="line" smooth="yes"/>
      <point x="71" y="342"/>
      <point x="51" y="362"/>
      <point x="51" y="386" type="curve" smooth="yes"/>
      <point x="51" y="410"/>
      <point x="71" y="430"/>
    </contour>
    <contour>
      <point x="95" y="240" type="curve" smooth="yes"/>
      <point x="397" y="240" type="line" smooth="yes"/>
      <point x="421" y="240"/>
      <point x="441" y="220"/>
      <point x="441" y="196" type="curve" smooth="yes"/>
      <point x="441" y="172"/>
      <point x="421" y="152"/>
      <point x="397" y="152" type="curve" smooth="yes"/>
      <point x="95" y="152" type="line" smooth="yes"/>
      <point x="71" y="152"/>
      <point x="51" y="172"/>
      <point x="51" y="196" type="curve" smooth="yes"/>
      <point x="51" y="220"/>
      <point x="71" y="240"/>
    </contour>
  </outline>
</glyph>
<glyph name="bullet" format="1">
  <advance width="521"/>
  <unicode hex="2022"/>
  <outline>
    <contour>
      <point x="260" y="352" type="curve" smooth="yes"/>
      <point x="198" y="352"/>
      <point x="155" y="302"/>
      <point x="155" y="253" type="curve" smooth="yes"/>
      <point x="155" y="197"/>
      <point x="201" y="154"/>
      <point x="260" y="154" type="curve" smooth="yes"/>
      <point x="322" y="154"/>
      <point x="365" y="198"/>
      <point x="365" y="252" type="curve" smooth="yes"/>
      <point x="365" y="302"/>
      <point x="326" y="352"/>
    </contour>
  </outline>
</glyph>
<glyph name="perthousand" format="1">
  <advance width="1133"/>
  <unicode hex="2030"/>
  <outline>
    <contour>
      <point x="931" y="338" type="curve" smooth="yes"/>
      <point x="1011" y="338"/>
      <point x="1088" y="273"/>
      <point x="1088" y="164" type="curve" smooth="yes"/>
      <point x="1088" y="61"/>
      <point x="1023" y="-11"/>
      <point x="931" y="-11" type="curve" smooth="yes"/>
      <point x="847" y="-11"/>
      <point x="773" y="62"/>
      <point x="773" y="163" type="curve" smooth="yes"/>
      <point x="773" y="273"/>
      <point x="846" y="338"/>
    </contour>
    <contour>
      <point x="931" y="250" type="curve" smooth="yes"/>
      <point x="888" y="250"/>
      <point x="871" y="205"/>
      <point x="871" y="163" type="curve" smooth="yes"/>
      <point x="871" y="124"/>
      <point x="889" y="77"/>
      <point x="931" y="77" type="curve" smooth="yes"/>
      <point x="977" y="77"/>
      <point x="990" y="125"/>
      <point x="990" y="164" type="curve" smooth="yes"/>
      <point x="990" y="205"/>
      <point x="971" y="250"/>
    </contour>
    <component base="percent"/>
    <component base="percent"/>
  </outline>
</glyph>
<glyph name="guilsinglright" format="1">
  <advance width="268"/>
  <unicode hex="203A"/>
  <outline>
    <contour>
      <point x="50" y="87" type="curve" smooth="yes"/>
      <point x="161" y="231" type="line" smooth="yes"/>
      <point x="175" y="250"/>
      <point x="205" y="252"/>
      <point x="224" y="238" type="curve" smooth="yes"/>
      <point x="243" y="223"/>
      <point x="248" y="194"/>
      <point x="233" y="175" type="curve" smooth="yes"/>
      <point x="122" y="31" type="line" smooth="yes"/>
      <point x="108" y="12"/>
      <point x="78" y="10"/>
      <point x="59" y="24" type="curve" smooth="yes"/>
      <point x="40" y="39"/>
      <point x="35" y="68"/>
    </contour>
    <contour>
      <point x="161" y="180" type="curve" smooth="yes"/>
      <point x="50" y="324" type="line" smooth="yes"/>
      <point x="35" y="343"/>
      <point x="40" y="372"/>
      <point x="59" y="387" type="curve" smooth="yes"/>
      <point x="78" y="401"/>
      <point x="108" y="399"/>
      <point x="122" y="380" type="curve" smooth="yes"/>
      <point x="233" y="236" type="line" smooth="yes"/>
      <point x="248" y="217"/>
      <point x="243" y="188"/>
      <point x="224" y="173" type="curve" smooth="yes"/>
      <point x="205" y="159"/>
      <point x="175" y="161"/>
    </contour>
  </outline>
</glyph>
<glyph name="fraction" format="1">
  <advance width="454"/>
  <unicode hex="2044"/>
  <outline>
    <contour>
      <point x="411" y="485" type="curve" smooth="yes"/>
      <point x="128" y="19" type="line" smooth="yes"/>
      <point x="115" y="-1"/>
      <point x="85" y="-7"/>
      <point x="65" y="5" type="curve" smooth="yes"/>
      <point x="45" y="18"/>
      <point x="36" y="47"/>
      <point x="48" y="67" type="curve" smooth="yes"/>
      <point x="331" y="533" type="line" smooth="yes"/>
      <point x="344" y="553"/>
      <point x="374" y="559"/>
      <point x="394" y="547" type="curve" smooth="yes"/>
      <point x="414" y="534"/>
      <point x="423" y="505"/>
    </contour>
  </outline>
</glyph>
<glyph name="Euro" format="1">
  <advance width="595"/>
  <unicode hex="20AC"/>
  <outline>
    <contour>
      <point x="75" y="389" type="curve" smooth="yes"/>
      <point x="423" y="389" type="line" smooth="yes"/>
      <point x="447" y="389"/>
      <point x="467" y="369"/>
      <point x="467" y="345" type="curve" smooth="yes"/>
      <point x="467" y="321"/>
      <point x="447" y="301"/>
      <point x="423" y="301" type="curve" smooth="yes"/>
      <point x="75" y="301" type="line" smooth="yes"/>
      <point x="51" y="301"/>
      <point x="31" y="321"/>
      <point x="31" y="345" type="curve" smooth="yes"/>
      <point x="31" y="369"/>
      <point x="51" y="389"/>
    </contour>
    <contour>
      <point x="75" y="245" type="curve" smooth="yes"/>
      <point x="423" y="245" type="line" smooth="yes"/>
      <point x="447" y="245"/>
      <point x="467" y="225"/>
      <point x="467" y="201" type="curve" smooth="yes"/>
      <point x="467" y="177"/>
      <point x="447" y="157"/>
      <point x="423" y="157" type="curve" smooth="yes"/>
      <point x="75" y="157" type="line" smooth="yes"/>
      <point x="51" y="157"/>
      <point x="31" y="177"/>
      <point x="31" y="201" type="curve" smooth="yes"/>
      <point x="31" y="225"/>
      <point x="51" y="245"/>
    </contour>
    <contour>
      <point x="487" y="450" type="curve" smooth="yes"/>
      <point x="461" y="464"/>
      <point x="422" y="473"/>
      <point x="380" y="473" type="curve" smooth="yes"/>
      <point x="269" y="473"/>
      <point x="196" y="388"/>
      <point x="196" y="272" type="curve" smooth="yes"/>
      <point x="196" y="166"/>
      <point x="254" y="78"/>
      <point x="385" y="78" type="curve" smooth="yes"/>
      <point x="426" y="78"/>
      <point x="463" y="87"/>
      <point x="491" y="102" type="curve" smooth="yes"/>
      <point x="512" y="113"/>
      <point x="540" y="105"/>
      <point x="551" y="84" type="curve" smooth="yes"/>
      <point x="562" y="63"/>
      <point x="554" y="35"/>
      <point x="533" y="24" type="curve" smooth="yes"/>
      <point x="493" y="3"/>
      <point x="442" y="-10"/>
      <point x="385" y="-10" type="curve" smooth="yes"/>
      <point x="194" y="-10"/>
      <point x="98" y="110"/>
      <point x="98" y="272" type="curve"/>
      <point x="98" y="450"/>
      <point x="221" y="561"/>
      <point x="380" y="561" type="curve" smooth="yes"/>
      <point x="438" y="561"/>
      <point x="493" y="548"/>
      <point x="529" y="528" type="curve" smooth="yes"/>
      <point x="550" y="516"/>
      <point x="558" y="489"/>
      <point x="547" y="468" type="curve" smooth="yes"/>
      <point x="535" y="447"/>
      <point x="508" y="439"/>
    </contour>
  </outline>
</glyph>
<glyph name="indianrupee" format="1">
  <advance width="602"/>
  <unicode hex="20B9"/>
  <outline>
    <contour>
      <point x="152" y="268" type="curve" smooth="yes"/>
      <point x="248" y="268"/>
      <point x="311" y="308"/>
      <point x="311" y="367" type="curve" smooth="yes"/>
      <point x="311" y="431"/>
      <point x="238" y="465"/>
      <point x="152" y="465" type="curve" smooth="yes"/>
      <point x="116" y="465" type="line" smooth="yes"/>
      <point x="92" y="465"/>
      <point x="72" y="485"/>
      <point x="72" y="509" type="curve" smooth="yes"/>
      <point x="72" y="533"/>
      <point x="92" y="553"/>
      <point x="116" y="553" type="curve" smooth="yes"/>
      <point x="152" y="553" type="line" smooth="yes"/>
      <point x="316" y="553"/>
      <point x="409" y="471"/>
      <point x="409" y="367" type="curve" smooth="yes"/>
      <point x="409" y="272"/>
      <point x="332" y="180"/>
      <point x="152" y="180" type="curve" smooth="yes"/>
      <point x="128" y="180"/>
      <point x="108" y="200"/>
      <point x="108" y="224" type="curve" smooth="yes"/>
      <point x="108" y="248"/>
      <point x="128" y="268"/>
    </contour>
    <contour>
      <point x="177" y="256" type="curve" smooth="yes"/>
      <point x="421" y="79" type="line" smooth="yes"/>
      <point x="440" y="65"/>
      <point x="445" y="36"/>
      <point x="431" y="17" type="curve" smooth="yes"/>
      <point x="417" y="-2"/>
      <point x="388" y="-7"/>
      <point x="369" y="7" type="curve" smooth="yes"/>
      <point x="125" y="184" type="line" smooth="yes"/>
      <point x="106" y="198"/>
      <point x="101" y="227"/>
      <point x="115" y="246" type="curve" smooth="yes"/>
      <point x="129" y="265"/>
      <point x="158" y="270"/>
    </contour>
    <contour>
      <point x="116" y="411" type="curve" smooth="yes"/>
      <point x="477" y="411" type="line" smooth="yes"/>
      <point x="501" y="411"/>
      <point x="521" y="391"/>
      <point x="521" y="367" type="curve" smooth="yes"/>
      <point x="521" y="343"/>
      <point x="501" y="323"/>
      <point x="477" y="323" type="curve" smooth="yes"/>
      <point x="116" y="323" type="line" smooth="yes"/>
      <point x="92" y="323"/>
      <point x="72" y="343"/>
      <point x="72" y="367" type="curve" smooth="yes"/>
      <point x="72" y="391"/>
      <point x="92" y="411"/>
    </contour>
    <contour>
      <point x="163" y="553" type="curve" smooth="yes"/>
      <point x="477" y="553" type="line" smooth="yes"/>
      <point x="501" y="553"/>
      <point x="521" y="533"/>
      <point x="521" y="509" type="curve" smooth="yes"/>
      <point x="521" y="485"/>
      <point x="501" y="465"/>
      <point x="477" y="465" type="curve" smooth="yes"/>
      <point x="163" y="465" type="line" smooth="yes"/>
      <point x="139" y="465"/>
      <point x="119" y="485"/>
      <point x="119" y="509" type="curve" smooth="yes"/>
      <point x="119" y="533"/>
      <point x="139" y="553"/>
    </contour>
  </outline>
</glyph>
<glyph name="uni20BA" format="1">
  <advance width="495"/>
  <unicode hex="20BA"/>
  <outline>
    <contour>
      <point x="190" y="508" type="curve" smooth="yes"/>
      <point x="190" y="43" type="line" smooth="yes"/>
      <point x="190" y="19"/>
      <point x="165" y="-1"/>
      <point x="141" y="-1" type="curve" smooth="yes"/>
      <point x="117" y="-1"/>
      <point x="92" y="19"/>
      <point x="92" y="43" type="curve" smooth="yes"/>
      <point x="92" y="508" type="line" smooth="yes"/>
      <point x="92" y="532"/>
      <point x="117" y="552"/>
      <point x="141" y="552" type="curve" smooth="yes"/>
      <point x="165" y="552"/>
      <point x="190" y="532"/>
    </contour>
    <contour>
      <point x="150" y="87" type="curve" smooth="yes"/>
      <point x="258" y="84" type="line"/>
      <point x="256" y="84" type="line"/>
      <point x="327" y="86"/>
      <point x="373" y="122"/>
      <point x="380" y="186" type="curve" smooth="yes"/>
      <point x="383" y="210"/>
      <point x="410" y="227"/>
      <point x="434" y="225" type="curve" smooth="yes"/>
      <point x="458" y="222"/>
      <point x="480" y="199"/>
      <point x="478" y="176" type="curve" smooth="yes"/>
      <point x="465" y="62"/>
      <point x="383" y="0"/>
      <point x="258" y="-4" type="curve" smooth="yes"/>
      <point x="258" y="-4"/>
      <point x="256" y="-4"/>
      <point x="256" y="-4" type="curve" smooth="yes"/>
      <point x="148" y="-1" type="line" smooth="yes"/>
      <point x="124" y="0"/>
      <point x="104" y="20"/>
      <point x="105" y="44" type="curve" smooth="yes"/>
      <point x="106" y="68"/>
      <point x="126" y="88"/>
    </contour>
    <contour>
      <point x="313" y="390" type="curve" smooth="yes"/>
      <point x="77" y="303" type="line" smooth="yes"/>
      <point x="55" y="294"/>
      <point x="29" y="306"/>
      <point x="21" y="329" type="curve" smooth="yes"/>
      <point x="12" y="351"/>
      <point x="24" y="377"/>
      <point x="47" y="385" type="curve" smooth="yes"/>
      <point x="283" y="472" type="line" smooth="yes"/>
      <point x="305" y="481"/>
      <point x="331" y="469"/>
      <point x="339" y="446" type="curve" smooth="yes"/>
      <point x="348" y="424"/>
      <point x="336" y="398"/>
    </contour>
    <contour>
      <point x="313" y="237" type="curve" smooth="yes"/>
      <point x="77" y="151" type="line" smooth="yes"/>
      <point x="55" y="143"/>
      <point x="29" y="155"/>
      <point x="21" y="177" type="curve" smooth="yes"/>
      <point x="13" y="199"/>
      <point x="25" y="225"/>
      <point x="47" y="233" type="curve" smooth="yes"/>
      <point x="283" y="319" type="line" smooth="yes"/>
      <point x="305" y="327"/>
      <point x="331" y="315"/>
      <point x="339" y="293" type="curve" smooth="yes"/>
      <point x="347" y="271"/>
      <point x="335" y="245"/>
    </contour>
  </outline>
</glyph>
<glyph name="uni20BD" format="1">
  <advance width="532"/>
  <unicode hex="20BD"/>
  <outline>
    <contour>
      <point x="65" y="316" type="curve" smooth="yes"/>
      <point x="293" y="316" type="line" smooth="yes"/>
      <point x="363" y="316"/>
      <point x="403" y="346"/>
      <point x="403" y="391" type="curve" smooth="yes"/>
      <point x="403" y="439"/>
      <point x="355" y="465"/>
      <point x="293" y="465" type="curve" smooth="yes"/>
      <point x="158" y="465" type="line"/>
      <point x="207" y="509" type="line"/>
      <point x="207" y="43" type="line" smooth="yes"/>
      <point x="207" y="19"/>
      <point x="182" y="-1"/>
      <point x="158" y="-1" type="curve" smooth="yes"/>
      <point x="134" y="-1"/>
      <point x="109" y="19"/>
      <point x="109" y="43" type="curve" smooth="yes"/>
      <point x="109" y="509" type="line"/>
      <point x="109" y="533"/>
      <point x="131" y="553"/>
      <point x="158" y="553" type="curve" smooth="yes"/>
      <point x="293" y="553" type="line" smooth="yes"/>
      <point x="429" y="553"/>
      <point x="501" y="483"/>
      <point x="501" y="391" type="curve" smooth="yes"/>
      <point x="501" y="306"/>
      <point x="445" y="228"/>
      <point x="293" y="228" type="curve" smooth="yes"/>
      <point x="65" y="228" type="line" smooth="yes"/>
      <point x="41" y="228"/>
      <point x="21" y="248"/>
      <point x="21" y="272" type="curve" smooth="yes"/>
      <point x="21" y="296"/>
      <point x="41" y="316"/>
    </contour>
    <contour>
      <point x="64" y="173" type="curve" smooth="yes"/>
      <point x="326" y="173" type="line" smooth="yes"/>
      <point x="350" y="173"/>
      <point x="370" y="153"/>
      <point x="370" y="129" type="curve" smooth="yes"/>
      <point x="370" y="105"/>
      <point x="350" y="85"/>
      <point x="326" y="85" type="curve" smooth="yes"/>
      <point x="64" y="85" type="line" smooth="yes"/>
      <point x="40" y="85"/>
      <point x="20" y="105"/>
      <point x="20" y="129" type="curve" smooth="yes"/>
      <point x="20" y="153"/>
      <point x="40" y="173"/>
    </contour>
  </outline>
</glyph>
<glyph name="trademark" format="1">
  <advance width="758"/>
  <unicode hex="2122"/>
  <outline>
    <contour>
      <point x="208" y="543" type="curve" smooth="yes"/>
      <point x="208" y="312" type="line" smooth="yes"/>
      <point x="208" y="291"/>
      <point x="186" y="274"/>
      <point x="165" y="274" type="curve" smooth="yes"/>
      <point x="144" y="274"/>
      <point x="122" y="291"/>
      <point x="122" y="312" type="curve" smooth="yes"/>
      <point x="122" y="543" type="line" smooth="yes"/>
      <point x="122" y="564"/>
      <point x="144" y="581"/>
      <point x="165" y="581" type="curve" smooth="yes"/>
      <point x="186" y="581"/>
      <point x="208" y="564"/>
    </contour>
    <contour>
      <point x="60" y="581" type="curve" smooth="yes"/>
      <point x="272" y="581" type="line" smooth="yes"/>
      <point x="293" y="581"/>
      <point x="310" y="564"/>
      <point x="310" y="543" type="curve" smooth="yes"/>
      <point x="310" y="522"/>
      <point x="293" y="505"/>
      <point x="272" y="505" type="curve" smooth="yes"/>
      <point x="60" y="505" type="line" smooth="yes"/>
      <point x="39" y="505"/>
      <point x="22" y="522"/>
      <point x="22" y="543" type="curve" smooth="yes"/>
      <point x="22" y="564"/>
      <point x="39" y="581"/>
    </contour>
    <contour>
      <point x="447" y="540" type="curve" smooth="yes"/>
      <point x="435" y="472"/>
      <point x="420" y="362"/>
      <point x="414" y="306" type="curve" smooth="yes"/>
      <point x="411" y="286"/>
      <point x="387" y="271"/>
      <point x="367" y="273" type="curve" smooth="yes"/>
      <point x="347" y="275"/>
      <point x="326" y="295"/>
      <point x="328" y="316" type="curve" smooth="yes"/>
      <point x="334" y="372"/>
      <point x="351" y="486"/>
      <point x="363" y="554" type="curve" smooth="yes"/>
      <point x="367" y="575"/>
      <point x="391" y="588"/>
      <point x="412" y="584" type="curve" smooth="yes"/>
      <point x="432" y="581"/>
      <point x="451" y="560"/>
    </contour>
    <contour>
      <point x="682" y="557" type="curve" smooth="yes"/>
      <point x="698" y="481"/>
      <point x="710" y="382"/>
      <point x="719" y="317" type="curve" smooth="yes"/>
      <point x="722" y="297"/>
      <point x="703" y="276"/>
      <point x="682" y="273" type="curve" smooth="yes"/>
      <point x="662" y="271"/>
      <point x="638" y="285"/>
      <point x="635" y="305" type="curve" smooth="yes"/>
      <point x="626" y="368"/>
      <point x="614" y="465"/>
      <point x="598" y="539" type="curve" smooth="yes"/>
      <point x="594" y="559"/>
      <point x="612" y="581"/>
      <point x="632" y="585" type="curve" smooth="yes"/>
      <point x="652" y="589"/>
      <point x="677" y="577"/>
    </contour>
    <contour>
      <point x="452" y="559" type="curve" smooth="yes"/>
      <point x="482" y="499"/>
      <point x="529" y="405"/>
      <point x="562" y="339" type="curve" smooth="yes"/>
      <point x="571" y="321"/>
      <point x="560" y="296"/>
      <point x="542" y="287" type="curve" smooth="yes"/>
      <point x="524" y="278"/>
      <point x="498" y="284"/>
      <point x="488" y="303" type="curve" smooth="yes"/>
      <point x="455" y="369"/>
      <point x="408" y="463"/>
      <point x="378" y="523" type="curve" smooth="yes"/>
      <point x="369" y="541"/>
      <point x="380" y="566"/>
      <point x="398" y="575" type="curve" smooth="yes"/>
      <point x="416" y="584"/>
      <point x="442" y="578"/>
    </contour>
    <contour>
      <point x="489" y="343" type="curve" smooth="yes"/>
      <point x="519" y="409"/>
      <point x="560" y="492"/>
      <point x="597" y="563" type="curve" smooth="yes"/>
      <point x="607" y="581"/>
      <point x="633" y="587"/>
      <point x="651" y="578" type="curve" smooth="yes"/>
      <point x="669" y="568"/>
      <point x="679" y="543"/>
      <point x="669" y="525" type="curve" smooth="yes"/>
      <point x="632" y="456"/>
      <point x="593" y="373"/>
      <point x="565" y="309" type="curve" smooth="yes"/>
      <point x="556" y="290"/>
      <point x="530" y="283"/>
      <point x="512" y="291" type="curve" smooth="yes"/>
      <point x="493" y="300"/>
      <point x="481" y="324"/>
    </contour>
  </outline>
</glyph>
<glyph name="partialdiff" format="1">
  <advance width="566"/>
  <unicode hex="2202"/>
  <outline>
    <contour>
      <point x="188" y="502" type="curve" smooth="yes"/>
      <point x="224" y="535"/>
      <point x="274" y="556"/>
      <point x="322" y="556" type="curve" smooth="yes"/>
      <point x="365" y="556"/>
      <point x="409" y="540"/>
      <point x="440" y="510" type="curve" smooth="yes"/>
      <point x="477" y="474"/>
      <point x="503" y="399"/>
      <point x="503" y="317" type="curve" smooth="yes"/>
      <point x="503" y="207"/>
      <point x="458" y="101"/>
      <point x="411" y="57" type="curve" smooth="yes"/>
      <point x="369" y="16"/>
      <point x="316" y="-4"/>
      <point x="262" y="-4" type="curve" smooth="yes"/>
      <point x="152" y="-4"/>
      <point x="76" y="72"/>
      <point x="76" y="164" type="curve" smooth="yes"/>
      <point x="76" y="268"/>
      <point x="157" y="360"/>
      <point x="307" y="360" type="curve" smooth="yes"/>
      <point x="348" y="360"/>
      <point x="398" y="353"/>
      <point x="451" y="341" type="curve" smooth="yes"/>
      <point x="474" y="336"/>
      <point x="489" y="312"/>
      <point x="484" y="288" type="curve" smooth="yes"/>
      <point x="479" y="265"/>
      <point x="455" y="250"/>
      <point x="431" y="255" type="curve" smooth="yes"/>
      <point x="386" y="265"/>
      <point x="342" y="272"/>
      <point x="307" y="272" type="curve" smooth="yes"/>
      <point x="225" y="272"/>
      <point x="174" y="224"/>
      <point x="174" y="164" type="curve" smooth="yes"/>
      <point x="174" y="120"/>
      <point x="210" y="84"/>
      <point x="262" y="84" type="curve" smooth="yes"/>
      <point x="294" y="84"/>
      <point x="325" y="98"/>
      <point x="349" y="121" type="curve" smooth="yes"/>
      <point x="384" y="155"/>
      <point x="405" y="239"/>
      <point x="405" y="317" type="curve" smooth="yes"/>
      <point x="405" y="367"/>
      <point x="403" y="422"/>
      <point x="378" y="446" type="curve" smooth="yes"/>
      <point x="363" y="460"/>
      <point x="343" y="468"/>
      <point x="322" y="468" type="curve" smooth="yes"/>
      <point x="296" y="468"/>
      <point x="268" y="455"/>
      <point x="248" y="436" type="curve" smooth="yes"/>
      <point x="231" y="420"/>
      <point x="202" y="422"/>
      <point x="186" y="439" type="curve" smooth="yes"/>
      <point x="170" y="456"/>
      <point x="170" y="486"/>
    </contour>
  </outline>
</glyph>
<glyph name="summation" format="1">
  <advance width="485"/>
  <unicode hex="2211"/>
  <outline>
    <contour>
      <point x="294" y="245" type="curve" smooth="yes"/>
      <point x="97" y="14" type="line" smooth="yes"/>
      <point x="82" y="-4"/>
      <point x="53" y="-6"/>
      <point x="34" y="10" type="curve" smooth="yes"/>
      <point x="16" y="25"/>
      <point x="13" y="54"/>
      <point x="29" y="72" type="curve" smooth="yes"/>
      <point x="226" y="303" type="line" smooth="yes"/>
      <point x="241" y="321"/>
      <point x="270" y="323"/>
      <point x="289" y="307" type="curve" smooth="yes"/>
      <point x="307" y="292"/>
      <point x="310" y="263"/>
    </contour>
    <contour>
      <point x="71" y="87" type="curve" smooth="yes"/>
      <point x="402" y="87" type="line" smooth="yes"/>
      <point x="426" y="87"/>
      <point x="446" y="67"/>
      <point x="446" y="43" type="curve" smooth="yes"/>
      <point x="446" y="19"/>
      <point x="426" y="-1"/>
      <point x="402" y="-1" type="curve" smooth="yes"/>
      <point x="71" y="-1" type="line" smooth="yes"/>
      <point x="47" y="-1"/>
      <point x="27" y="19"/>
      <point x="27" y="43" type="curve" smooth="yes"/>
      <point x="27" y="67"/>
      <point x="47" y="87"/>
    </contour>
    <contour>
      <point x="81" y="553" type="curve" smooth="yes"/>
      <point x="397" y="553" type="line" smooth="yes"/>
      <point x="421" y="553"/>
      <point x="441" y="533"/>
      <point x="441" y="509" type="curve" smooth="yes"/>
      <point x="441" y="485"/>
      <point x="421" y="465"/>
      <point x="397" y="465" type="curve" smooth="yes"/>
      <point x="81" y="465" type="line" smooth="yes"/>
      <point x="57" y="465"/>
      <point x="37" y="485"/>
      <point x="37" y="509" type="curve" smooth="yes"/>
      <point x="37" y="533"/>
      <point x="57" y="553"/>
    </contour>
    <contour>
      <point x="109" y="538" type="curve" smooth="yes"/>
      <point x="296" y="310" type="line" smooth="yes"/>
      <point x="311" y="291"/>
      <point x="307" y="262"/>
      <point x="289" y="247" type="curve" smooth="yes"/>
      <point x="271" y="232"/>
      <point x="241" y="234"/>
      <point x="226" y="252" type="curve" smooth="yes"/>
      <point x="39" y="480" type="line" smooth="yes"/>
      <point x="24" y="499"/>
      <point x="28" y="528"/>
      <point x="46" y="543" type="curve" smooth="yes"/>
      <point x="64" y="558"/>
      <point x="94" y="556"/>
    </contour>
  </outline>
</glyph>
<glyph name="minus" format="1">
  <advance width="530"/>
  <unicode hex="2212"/>
  <outline>
    <contour>
      <point x="96" y="313" type="curve" smooth="yes"/>
      <point x="433" y="313" type="line" smooth="yes"/>
      <point x="457" y="313"/>
      <point x="477" y="293"/>
      <point x="477" y="269" type="curve" smooth="yes"/>
      <point x="477" y="245"/>
      <point x="457" y="225"/>
      <point x="433" y="225" type="curve" smooth="yes"/>
      <point x="96" y="225" type="line" smooth="yes"/>
      <point x="72" y="225"/>
      <point x="52" y="245"/>
      <point x="52" y="269" type="curve" smooth="yes"/>
      <point x="52" y="293"/>
      <point x="72" y="313"/>
    </contour>
  </outline>
</glyph>
<glyph name="infinity" format="1">
  <advance width="722"/>
  <unicode hex="221E"/>
  <outline>
    <contour>
      <point x="407" y="300" type="curve"/>
      <point x="407" y="300" type="line"/>
      <point x="444" y="249"/>
      <point x="473" y="209"/>
      <point x="518" y="209" type="curve" smooth="yes"/>
      <point x="556" y="209"/>
      <point x="581" y="241"/>
      <point x="581" y="282" type="curve" smooth="yes"/>
      <point x="581" y="327"/>
      <point x="548" y="359"/>
      <point x="513" y="359" type="curve" smooth="yes"/>
      <point x="460" y="359"/>
      <point x="432" y="307"/>
      <point x="400" y="253" type="curve" smooth="yes"/>
      <point x="348" y="167"/>
      <point x="282" y="122"/>
      <point x="207" y="122" type="curve" smooth="yes"/>
      <point x="118" y="122"/>
      <point x="43" y="181"/>
      <point x="43" y="284" type="curve"/>
      <point x="43" y="394"/>
      <point x="123" y="448"/>
      <point x="202" y="448" type="curve" smooth="yes"/>
      <point x="278" y="448"/>
      <point x="330" y="404"/>
    </contour>
    <contour>
      <point x="333" y="246" type="line"/>
      <point x="284" y="312"/>
      <point x="256" y="360"/>
      <point x="202" y="360" type="curve" smooth="yes"/>
      <point x="165" y="360"/>
      <point x="141" y="326"/>
      <point x="141" y="284" type="curve" smooth="yes"/>
      <point x="141" y="243"/>
      <point x="166" y="210"/>
      <point x="207" y="210" type="curve" smooth="yes"/>
      <point x="256" y="210"/>
      <point x="290" y="251"/>
      <point x="320" y="301" type="curve" smooth="yes"/>
      <point x="374" y="391"/>
      <point x="434" y="447"/>
      <point x="513" y="447" type="curve" smooth="yes"/>
      <point x="588" y="447"/>
      <point x="679" y="393"/>
      <point x="679" y="282" type="curve" smooth="yes"/>
      <point x="679" y="177"/>
      <point x="602" y="121"/>
      <point x="518" y="121" type="curve" smooth="yes"/>
      <point x="451" y="121"/>
      <point x="394" y="161"/>
      <point x="333" y="246" type="curve"/>
    </contour>
  </outline>
</glyph>
<glyph name="lozenge" format="1">
  <advance width="389"/>
  <unicode hex="25CA"/>
  <outline>
    <contour>
      <point x="120" y="284" type="curve" smooth="yes"/>
      <point x="141" y="223"/>
      <point x="214" y="78"/>
      <point x="235" y="43" type="curve" smooth="yes"/>
      <point x="247" y="22"/>
      <point x="238" y="-7"/>
      <point x="217" y="-19" type="curve" smooth="yes"/>
      <point x="197" y="-31"/>
      <point x="167" y="-25"/>
      <point x="155" y="-5" type="curve" smooth="yes"/>
      <point x="132" y="34"/>
      <point x="53" y="187"/>
      <point x="30" y="252" type="curve" smooth="yes"/>
      <point x="22" y="275"/>
      <point x="38" y="302"/>
      <point x="60" y="310" type="curve" smooth="yes"/>
      <point x="83" y="317"/>
      <point x="112" y="306"/>
    </contour>
    <contour>
      <point x="157" y="39" type="curve" smooth="yes"/>
      <point x="181" y="81"/>
      <point x="247" y="215"/>
      <point x="273" y="285" type="curve" smooth="yes"/>
      <point x="282" y="307"/>
      <point x="311" y="318"/>
      <point x="333" y="309" type="curve" smooth="yes"/>
      <point x="356" y="301"/>
      <point x="371" y="274"/>
      <point x="363" y="251" type="curve" smooth="yes"/>
      <point x="335" y="177"/>
      <point x="263" y="37"/>
      <point x="237" y="-7" type="curve" smooth="yes"/>
      <point x="225" y="-28"/>
      <point x="195" y="-34"/>
      <point x="175" y="-22" type="curve" smooth="yes"/>
      <point x="154" y="-10"/>
      <point x="145" y="19"/>
    </contour>
    <contour>
      <point x="235" y="506" type="curve" smooth="yes"/>
      <point x="214" y="469"/>
      <point x="141" y="324"/>
      <point x="120" y="263" type="curve" smooth="yes"/>
      <point x="112" y="241"/>
      <point x="83" y="230"/>
      <point x="60" y="237" type="curve" smooth="yes"/>
      <point x="38" y="245"/>
      <point x="22" y="272"/>
      <point x="30" y="295" type="curve" smooth="yes"/>
      <point x="53" y="360"/>
      <point x="132" y="513"/>
      <point x="155" y="552" type="curve" smooth="yes"/>
      <point x="167" y="573"/>
      <point x="196" y="579"/>
      <point x="217" y="567" type="curve" smooth="yes"/>
      <point x="238" y="555"/>
      <point x="247" y="526"/>
    </contour>
    <contour>
      <point x="273" y="262" type="curve" smooth="yes"/>
      <point x="247" y="333"/>
      <point x="181" y="466"/>
      <point x="157" y="509" type="curve" smooth="yes"/>
      <point x="145" y="530"/>
      <point x="155" y="559"/>
      <point x="175" y="570" type="curve" smooth="yes"/>
      <point x="196" y="582"/>
      <point x="226" y="576"/>
      <point x="237" y="555" type="curve" smooth="yes"/>
      <point x="263" y="510"/>
      <point x="335" y="371"/>
      <point x="363" y="296" type="curve" smooth="yes"/>
      <point x="371" y="273"/>
      <point x="356" y="246"/>
      <point x="333" y="238" type="curve" smooth="yes"/>
      <point x="311" y="229"/>
      <point x="282" y="240"/>
    </contour>
  </outline>
</glyph>
<glyph name="dottedcircle" format="1">
  <advance width="660"/>
  <unicode hex="25CC"/>
  <outline>
    <contour>
      <point x="350" y="565" type="curve" smooth="yes"/>
      <point x="350" y="548" type="line" smooth="yes"/>
      <point x="350" y="524"/>
      <point x="325" y="504"/>
      <point x="301" y="504" type="curve" smooth="yes"/>
      <point x="277" y="504"/>
      <point x="252" y="524"/>
      <point x="252" y="548" type="curve" smooth="yes"/>
      <point x="252" y="565" type="line" smooth="yes"/>
      <point x="252" y="589"/>
      <point x="277" y="609"/>
      <point x="301" y="609" type="curve" smooth="yes"/>
      <point x="325" y="609"/>
      <point x="350" y="589"/>
    </contour>
    <contour>
      <point x="230" y="523" type="curve" smooth="yes"/>
      <point x="230" y="505" type="line" smooth="yes"/>
      <point x="230" y="481"/>
      <point x="205" y="461"/>
      <point x="181" y="461" type="curve" smooth="yes"/>
      <point x="157" y="461"/>
      <point x="132" y="481"/>
      <point x="132" y="505" type="curve" smooth="yes"/>
      <point x="132" y="523" type="line" smooth="yes"/>
      <point x="132" y="547"/>
      <point x="157" y="567"/>
      <point x="181" y="567" type="curve" smooth="yes"/>
      <point x="205" y="567"/>
      <point x="230" y="547"/>
    </contour>
    <contour>
      <point x="151" y="418" type="curve" smooth="yes"/>
      <point x="151" y="401" type="line" smooth="yes"/>
      <point x="151" y="377"/>
      <point x="126" y="357"/>
      <point x="102" y="357" type="curve" smooth="yes"/>
      <point x="78" y="357"/>
      <point x="53" y="377"/>
      <point x="53" y="401" type="curve" smooth="yes"/>
      <point x="53" y="418" type="line" smooth="yes"/>
      <point x="53" y="442"/>
      <point x="78" y="462"/>
      <point x="102" y="462" type="curve" smooth="yes"/>
      <point x="126" y="462"/>
      <point x="151" y="442"/>
    </contour>
    <contour>
      <point x="136" y="299" type="curve" smooth="yes"/>
      <point x="136" y="282" type="line" smooth="yes"/>
      <point x="136" y="258"/>
      <point x="111" y="238"/>
      <point x="87" y="238" type="curve" smooth="yes"/>
      <point x="63" y="238"/>
      <point x="38" y="258"/>
      <point x="38" y="282" type="curve" smooth="yes"/>
      <point x="38" y="299" type="line" smooth="yes"/>
      <point x="38" y="323"/>
      <point x="63" y="343"/>
      <point x="87" y="343" type="curve" smooth="yes"/>
      <point x="111" y="343"/>
      <point x="136" y="323"/>
    </contour>
    <contour>
      <point x="189" y="187" type="curve" smooth="yes"/>
      <point x="189" y="169" type="line" smooth="yes"/>
      <point x="189" y="145"/>
      <point x="164" y="125"/>
      <point x="140" y="125" type="curve" smooth="yes"/>
      <point x="116" y="125"/>
      <point x="91" y="145"/>
      <point x="91" y="169" type="curve" smooth="yes"/>
      <point x="91" y="187" type="line" smooth="yes"/>
      <point x="91" y="211"/>
      <point x="116" y="231"/>
      <point x="140" y="231" type="curve" smooth="yes"/>
      <point x="164" y="231"/>
      <point x="189" y="211"/>
    </contour>
    <contour>
      <point x="136" y="299" type="curve" smooth="yes"/>
      <point x="136" y="282" type="line" smooth="yes"/>
      <point x="136" y="258"/>
      <point x="111" y="238"/>
      <point x="87" y="238" type="curve" smooth="yes"/>
      <point x="63" y="238"/>
      <point x="38" y="258"/>
      <point x="38" y="282" type="curve" smooth="yes"/>
      <point x="38" y="299" type="line" smooth="yes"/>
      <point x="38" y="323"/>
      <point x="63" y="343"/>
      <point x="87" y="343" type="curve" smooth="yes"/>
      <point x="111" y="343"/>
      <point x="136" y="323"/>
    </contour>
    <contour>
      <point x="318" y="81" type="curve" smooth="yes"/>
      <point x="318" y="98" type="line" smooth="yes"/>
      <point x="318" y="122"/>
      <point x="343" y="142"/>
      <point x="367" y="142" type="curve" smooth="yes"/>
      <point x="391" y="142"/>
      <point x="416" y="122"/>
      <point x="416" y="98" type="curve" smooth="yes"/>
      <point x="416" y="81" type="line" smooth="yes"/>
      <point x="416" y="57"/>
      <point x="391" y="37"/>
      <point x="367" y="37" type="curve" smooth="yes"/>
      <point x="343" y="37"/>
      <point x="318" y="57"/>
    </contour>
    <contour>
      <point x="440" y="133" type="curve" smooth="yes"/>
      <point x="440" y="150" type="line" smooth="yes"/>
      <point x="440" y="174"/>
      <point x="465" y="194"/>
      <point x="489" y="194" type="curve" smooth="yes"/>
      <point x="513" y="194"/>
      <point x="538" y="174"/>
      <point x="538" y="150" type="curve" smooth="yes"/>
      <point x="538" y="133" type="line" smooth="yes"/>
      <point x="538" y="109"/>
      <point x="513" y="89"/>
      <point x="489" y="89" type="curve" smooth="yes"/>
      <point x="465" y="89"/>
      <point x="440" y="109"/>
    </contour>
    <contour>
      <point x="511" y="228" type="curve" smooth="yes"/>
      <point x="511" y="245" type="line" smooth="yes"/>
      <point x="511" y="269"/>
      <point x="536" y="289"/>
      <point x="560" y="289" type="curve" smooth="yes"/>
      <point x="584" y="289"/>
      <point x="609" y="269"/>
      <point x="609" y="245" type="curve" smooth="yes"/>
      <point x="609" y="228" type="line" smooth="yes"/>
      <point x="609" y="204"/>
      <point x="584" y="184"/>
      <point x="560" y="184" type="curve" smooth="yes"/>
      <point x="536" y="184"/>
      <point x="511" y="204"/>
    </contour>
    <contour>
      <point x="523" y="357" type="curve" smooth="yes"/>
      <point x="523" y="374" type="line" smooth="yes"/>
      <point x="523" y="398"/>
      <point x="548" y="418"/>
      <point x="572" y="418" type="curve" smooth="yes"/>
      <point x="596" y="418"/>
      <point x="621" y="398"/>
      <point x="621" y="374" type="curve" smooth="yes"/>
      <point x="621" y="357" type="line" smooth="yes"/>
      <point x="621" y="333"/>
      <point x="596" y="313"/>
      <point x="572" y="313" type="curve" smooth="yes"/>
      <point x="548" y="313"/>
      <point x="523" y="333"/>
    </contour>
    <contour>
      <point x="473" y="469" type="curve" smooth="yes"/>
      <point x="473" y="486" type="line" smooth="yes"/>
      <point x="473" y="510"/>
      <point x="498" y="530"/>
      <point x="522" y="530" type="curve" smooth="yes"/>
      <point x="546" y="530"/>
      <point x="571" y="510"/>
      <point x="571" y="486" type="curve" smooth="yes"/>
      <point x="571" y="469" type="line" smooth="yes"/>
      <point x="571" y="445"/>
      <point x="546" y="425"/>
      <point x="522" y="425" type="curve" smooth="yes"/>
      <point x="498" y="425"/>
      <point x="473" y="445"/>
    </contour>
    <contour>
      <point x="523" y="357" type="curve" smooth="yes"/>
      <point x="523" y="374" type="line" smooth="yes"/>
      <point x="523" y="398"/>
      <point x="548" y="418"/>
      <point x="572" y="418" type="curve" smooth="yes"/>
      <point x="596" y="418"/>
      <point x="621" y="398"/>
      <point x="621" y="374" type="curve" smooth="yes"/>
      <point x="621" y="357" type="line" smooth="yes"/>
      <point x="621" y="333"/>
      <point x="596" y="313"/>
      <point x="572" y="313" type="curve" smooth="yes"/>
      <point x="548" y="313"/>
      <point x="523" y="333"/>
    </contour>
    <contour>
      <point x="194" y="96" type="curve" smooth="yes"/>
      <point x="194" y="114" type="line" smooth="yes"/>
      <point x="194" y="138"/>
      <point x="219" y="158"/>
      <point x="243" y="158" type="curve" smooth="yes"/>
      <point x="267" y="158"/>
      <point x="292" y="138"/>
      <point x="292" y="114" type="curve" smooth="yes"/>
      <point x="292" y="96" type="line" smooth="yes"/>
      <point x="292" y="72"/>
      <point x="267" y="52"/>
      <point x="243" y="52" type="curve" smooth="yes"/>
      <point x="219" y="52"/>
      <point x="194" y="72"/>
    </contour>
    <contour>
      <point x="378" y="535" type="curve" smooth="yes"/>
      <point x="378" y="552" type="line" smooth="yes"/>
      <point x="378" y="576"/>
      <point x="403" y="596"/>
      <point x="427" y="596" type="curve" smooth="yes"/>
      <point x="451" y="596"/>
      <point x="476" y="576"/>
      <point x="476" y="552" type="curve" smooth="yes"/>
      <point x="476" y="535" type="line" smooth="yes"/>
      <point x="476" y="511"/>
      <point x="451" y="491"/>
      <point x="427" y="491" type="curve" smooth="yes"/>
      <point x="403" y="491"/>
      <point x="378" y="511"/>
    </contour>
  </outline>
</glyph>
<glyph name=".notdef" format="1">
  <advance width="756"/>
  <outline>
    <contour>
      <point x="205" y="610" type="line"/>
      <point x="254" y="654" type="line"/>
      <point x="254" y="56" type="line"/>
      <point x="205" y="100" type="line"/>
      <point x="554" y="100" type="line"/>
      <point x="505" y="56" type="line"/>
      <point x="505" y="654" type="line"/>
      <point x="554" y="610" type="line"/>
    </contour>
    <contour>
      <point x="205" y="698" type="curve" smooth="yes"/>
      <point x="554" y="698" type="line" smooth="yes"/>
      <point x="581" y="698"/>
      <point x="603" y="678"/>
      <point x="603" y="654" type="curve" smooth="yes"/>
      <point x="603" y="56" type="line" smooth="yes"/>
      <point x="603" y="32"/>
      <point x="581" y="12"/>
      <point x="554" y="12" type="curve" smooth="yes"/>
      <point x="205" y="12" type="line" smooth="yes"/>
      <point x="178" y="12"/>
      <point x="156" y="32"/>
      <point x="156" y="56" type="curve" smooth="yes"/>
      <point x="156" y="654" type="line" smooth="yes"/>
      <point x="156" y="678"/>
      <point x="178" y="698"/>
    </contour>
  </outline>
</glyph>
<glyph name="acutecmb.cap" format="1">
  <advance width="0"/>
  <outline>
    <contour>
      <point x="128" y="707" type="curve" smooth="yes"/>
      <point x="83" y="682"/>
      <point x="36" y="652"/>
      <point x="8" y="633" type="curve" smooth="yes"/>
      <point x="-10" y="621"/>
      <point x="-36" y="626"/>
      <point x="-48" y="643" type="curve" smooth="yes"/>
      <point x="-60" y="661"/>
      <point x="-56" y="687"/>
      <point x="-38" y="699" type="curve" smooth="yes"/>
      <point x="-8" y="720"/>
      <point x="41" y="750"/>
      <point x="88" y="777" type="curve" smooth="yes"/>
      <point x="107" y="788"/>
      <point x="132" y="780"/>
      <point x="143" y="762" type="curve" smooth="yes"/>
      <point x="153" y="743"/>
      <point x="147" y="718"/>
    </contour>
  </outline>
</glyph>
<glyph name="circumflexcmb.cap" format="1">
  <advance width="0"/>
  <outline>
    <contour>
      <point x="15" y="707" type="curve" smooth="yes"/>
      <point x="-18" y="684"/>
      <point x="-53" y="661"/>
      <point x="-81" y="641" type="curve" smooth="yes"/>
      <point x="-98" y="629"/>
      <point x="-124" y="633"/>
      <point x="-137" y="651" type="curve" smooth="yes"/>
      <point x="-149" y="668"/>
      <point x="-145" y="694"/>
      <point x="-127" y="707" type="curve" smooth="yes"/>
      <point x="-99" y="727"/>
      <point x="-64" y="750"/>
      <point x="-31" y="773" type="curve" smooth="yes"/>
      <point x="-13" y="785"/>
      <point x="12" y="781"/>
      <point x="25" y="763" type="curve" smooth="yes"/>
      <point x="37" y="745"/>
      <point x="33" y="719"/>
    </contour>
    <contour>
      <point x="72" y="641" type="curve" smooth="yes"/>
      <point x="44" y="661"/>
      <point x="10" y="684"/>
      <point x="-24" y="707" type="curve" smooth="yes"/>
      <point x="-41" y="719"/>
      <point x="-46" y="745"/>
      <point x="-34" y="762" type="curve" smooth="yes"/>
      <point x="-22" y="780"/>
      <point x="4" y="785"/>
      <point x="22" y="773" type="curve" smooth="yes"/>
      <point x="56" y="750"/>
      <point x="90" y="727"/>
      <point x="118" y="707" type="curve" smooth="yes"/>
      <point x="136" y="694"/>
      <point x="140" y="668"/>
      <point x="128" y="651" type="curve" smooth="yes"/>
      <point x="115" y="633"/>
      <point x="89" y="629"/>
    </contour>
  </outline>
</glyph>
<glyph name="dieresiscmb.cap" format="1">
  <advance width="0"/>
  <outline>
    <contour>
      <point x="-103" y="764" type="curve" smooth="yes"/>
      <point x="-77" y="764"/>
      <point x="-42" y="745"/>
      <point x="-42" y="699" type="curve" smooth="yes"/>
      <point x="-42" y="649"/>
      <point x="-77" y="634"/>
      <point x="-103" y="634" type="curve" smooth="yes"/>
      <point x="-132" y="634"/>
      <point x="-166" y="654"/>
      <point x="-166" y="699" type="curve" smooth="yes"/>
      <point x="-166" y="741"/>
      <point x="-132" y="764"/>
    </contour>
    <contour>
      <point x="90" y="764" type="curve" smooth="yes"/>
      <point x="116" y="764"/>
      <point x="151" y="745"/>
      <point x="151" y="699" type="curve" smooth="yes"/>
      <point x="151" y="649"/>
      <point x="116" y="634"/>
      <point x="90" y="634" type="curve" smooth="yes"/>
      <point x="61" y="634"/>
      <point x="28" y="652"/>
      <point x="28" y="699" type="curve" smooth="yes"/>
      <point x="28" y="743"/>
      <point x="61" y="764"/>
    </contour>
  </outline>
</glyph>
<glyph name="dotaccentcmb.cap" format="1">
  <advance width="0"/>
  <outline>
    <contour>
      <point x="-5" y="775" type="curve" smooth="yes"/>
      <point x="23" y="775"/>
      <point x="60" y="753"/>
      <point x="60" y="706" type="curve" smooth="yes"/>
      <point x="60" y="663"/>
      <point x="25" y="640"/>
      <point x="-5" y="640" type="curve" smooth="yes"/>
      <point x="-41" y="640"/>
      <point x="-73" y="667"/>
      <point x="-73" y="706" type="curve"/>
      <point x="-73" y="748"/>
      <point x="-38" y="775"/>
    </contour>
  </outline>
</glyph>
<glyph name="hungarianumlautcmb.cap" format="1">
  <advance width="0"/>
  <outline>
    <contour>
      <point x="0" y="705" type="curve" smooth="yes"/>
      <point x="-31" y="683"/>
      <point x="-60" y="661"/>
      <point x="-84" y="636" type="curve" smooth="yes"/>
      <point x="-99" y="621"/>
      <point x="-126" y="621"/>
      <point x="-141" y="637" type="curve" smooth="yes"/>
      <point x="-157" y="652"/>
      <point x="-157" y="679"/>
      <point x="-142" y="694" type="curve" smooth="yes"/>
      <point x="-114" y="721"/>
      <point x="-83" y="745"/>
      <point x="-48" y="771" type="curve" smooth="yes"/>
      <point x="-30" y="783"/>
      <point x="-4" y="779"/>
      <point x="8" y="762" type="curve" smooth="yes"/>
      <point x="21" y="744"/>
      <point x="17" y="718"/>
    </contour>
    <contour>
      <point x="206" y="706" type="curve" smooth="yes"/>
      <point x="170" y="678"/>
      <point x="142" y="654"/>
      <point x="118" y="634" type="curve" smooth="yes"/>
      <point x="101" y="620"/>
      <point x="75" y="623"/>
      <point x="61" y="639" type="curve" smooth="yes"/>
      <point x="47" y="656"/>
      <point x="49" y="682"/>
      <point x="66" y="696" type="curve" smooth="yes"/>
      <point x="90" y="716"/>
      <point x="120" y="742"/>
      <point x="156" y="770" type="curve" smooth="yes"/>
      <point x="173" y="783"/>
      <point x="199" y="780"/>
      <point x="213" y="763" type="curve" smooth="yes"/>
      <point x="226" y="746"/>
      <point x="223" y="719"/>
    </contour>
  </outline>
</glyph>
<glyph name="hungarumlautcmb.cap" format="1">
  <advance width="0"/>
  <outline>
    <contour>
      <point x="-29" y="732" type="curve" smooth="yes"/>
      <point x="-49" y="701"/>
      <point x="-62" y="674"/>
      <point x="-73" y="647" type="curve" smooth="yes"/>
      <point x="-81" y="627"/>
      <point x="-108" y="619"/>
      <point x="-128" y="627" type="curve" smooth="yes"/>
      <point x="-148" y="635"/>
      <point x="-161" y="661"/>
      <point x="-153" y="681" type="curve" smooth="yes"/>
      <point x="-140" y="712"/>
      <point x="-123" y="743"/>
      <point x="-99" y="778" type="curve" smooth="yes"/>
      <point x="-87" y="796"/>
      <point x="-60" y="800"/>
      <point x="-42" y="788" type="curve" smooth="yes"/>
      <point x="-24" y="776"/>
      <point x="-17" y="750"/>
    </contour>
    <contour>
      <point x="176" y="732" type="curve" smooth="yes"/>
      <point x="156" y="701"/>
      <point x="143" y="674"/>
      <point x="132" y="647" type="curve" smooth="yes"/>
      <point x="124" y="627"/>
      <point x="97" y="619"/>
      <point x="77" y="627" type="curve" smooth="yes"/>
      <point x="57" y="635"/>
      <point x="44" y="661"/>
      <point x="52" y="681" type="curve" smooth="yes"/>
      <point x="65" y="712"/>
      <point x="82" y="743"/>
      <point x="106" y="778" type="curve" smooth="yes"/>
      <point x="118" y="796"/>
      <point x="145" y="800"/>
      <point x="163" y="788" type="curve" smooth="yes"/>
      <point x="181" y="776"/>
      <point x="188" y="750"/>
    </contour>
  </outline>
</glyph>
<glyph name="onesuperior" format="1">
  <advance width="232"/>
  <outline>
    <contour>
      <point x="182" y="525" type="curve" smooth="yes"/>
      <point x="182" y="277" type="line" smooth="yes"/>
      <point x="182" y="256"/>
      <point x="160" y="239"/>
      <point x="139" y="239" type="curve" smooth="yes"/>
      <point x="118" y="239"/>
      <point x="96" y="256"/>
      <point x="96" y="277" type="curve" smooth="yes"/>
      <point x="96" y="525" type="line" smooth="yes"/>
      <point x="96" y="546"/>
      <point x="118" y="563"/>
      <point x="139" y="563" type="curve" smooth="yes"/>
      <point x="160" y="563"/>
      <point x="182" y="546"/>
    </contour>
    <contour>
      <point x="157" y="494" type="curve" smooth="yes"/>
      <point x="75" y="451" type="line" smooth="yes"/>
      <point x="57" y="442"/>
      <point x="33" y="449"/>
      <point x="23" y="467" type="curve" smooth="yes"/>
      <point x="14" y="486"/>
      <point x="21" y="509"/>
      <point x="39" y="519" type="curve" smooth="yes"/>
      <point x="121" y="562" type="line" smooth="yes"/>
      <point x="139" y="571"/>
      <point x="163" y="564"/>
      <point x="173" y="546" type="curve" smooth="yes"/>
      <point x="182" y="527"/>
      <point x="175" y="504"/>
    </contour>
  </outline>
</glyph>
<glyph name="threesuperior" format="1">
  <advance width="382"/>
  <outline>
    <contour>
      <point x="108" y="556" type="curve" smooth="yes"/>
      <point x="280" y="556" type="line" smooth="yes"/>
      <point x="301" y="556"/>
      <point x="318" y="539"/>
      <point x="318" y="518" type="curve" smooth="yes"/>
      <point x="318" y="497"/>
      <point x="301" y="480"/>
      <point x="280" y="480" type="curve" smooth="yes"/>
      <point x="108" y="480" type="line" smooth="yes"/>
      <point x="87" y="480"/>
      <point x="70" y="497"/>
      <point x="70" y="518" type="curve" smooth="yes"/>
      <point x="70" y="539"/>
      <point x="87" y="556"/>
    </contour>
    <contour>
      <point x="110" y="318" type="curve" smooth="yes"/>
      <point x="131" y="311"/>
      <point x="158" y="305"/>
      <point x="189" y="305" type="curve" smooth="yes"/>
      <point x="219" y="305"/>
      <point x="246" y="314"/>
      <point x="246" y="336" type="curve" smooth="yes"/>
      <point x="246" y="358"/>
      <point x="221" y="365"/>
      <point x="196" y="365" type="curve" smooth="yes"/>
      <point x="172" y="365"/>
      <point x="153" y="362"/>
      <point x="143" y="359" type="curve" smooth="yes"/>
      <point x="123" y="354"/>
      <point x="102" y="367"/>
      <point x="97" y="387" type="curve" smooth="yes"/>
      <point x="92" y="407"/>
      <point x="105" y="428"/>
      <point x="125" y="433" type="curve" smooth="yes"/>
      <point x="139" y="436"/>
      <point x="164" y="441"/>
      <point x="196" y="441" type="curve" smooth="yes"/>
      <point x="287" y="441"/>
      <point x="332" y="394"/>
      <point x="332" y="336" type="curve" smooth="yes"/>
      <point x="332" y="280"/>
      <point x="293" y="229"/>
      <point x="189" y="229" type="curve" smooth="yes"/>
      <point x="148" y="229"/>
      <point x="113" y="237"/>
      <point x="86" y="246" type="curve" smooth="yes"/>
      <point x="67" y="252"/>
      <point x="55" y="275"/>
      <point x="62" y="294" type="curve" smooth="yes"/>
      <point x="68" y="313"/>
      <point x="91" y="325"/>
    </contour>
    <contour>
      <point x="300" y="484" type="curve" smooth="yes"/>
      <point x="161" y="368" type="line" smooth="yes"/>
      <point x="145" y="355"/>
      <point x="120" y="358"/>
      <point x="107" y="374" type="curve" smooth="yes"/>
      <point x="94" y="389"/>
      <point x="96" y="414"/>
      <point x="111" y="428" type="curve" smooth="yes"/>
      <point x="250" y="544" type="line" smooth="yes"/>
      <point x="266" y="557"/>
      <point x="291" y="554"/>
      <point x="304" y="538" type="curve" smooth="yes"/>
      <point x="317" y="523"/>
      <point x="315" y="498"/>
    </contour>
  </outline>
</glyph>
<glyph name="tildecmb.cap" format="1">
  <advance width="0"/>
  <outline>
    <contour>
      <point x="-164" y="714" type="curve" smooth="yes"/>
      <point x="-130" y="755"/>
      <point x="-96" y="773"/>
      <point x="-64" y="773" type="curve" smooth="yes"/>
      <point x="-35" y="773"/>
      <point x="-10" y="760"/>
      <point x="18" y="740" type="curve" smooth="yes"/>
      <point x="30" y="732"/>
      <point x="40" y="722"/>
      <point x="53" y="722" type="curve" smooth="yes"/>
      <point x="71" y="722"/>
      <point x="81" y="739"/>
      <point x="95" y="758" type="curve" smooth="yes"/>
      <point x="109" y="775"/>
      <point x="136" y="777"/>
      <point x="153" y="763" type="curve" smooth="yes"/>
      <point x="170" y="750"/>
      <point x="174" y="723"/>
      <point x="161" y="706" type="curve" smooth="yes"/>
      <point x="123" y="659"/>
      <point x="91" y="642"/>
      <point x="53" y="642" type="curve" smooth="yes"/>
      <point x="26" y="642"/>
      <point x="0" y="654"/>
      <point x="-28" y="674" type="curve" smooth="yes"/>
      <point x="-40" y="682"/>
      <point x="-51" y="693"/>
      <point x="-64" y="693" type="curve" smooth="yes"/>
      <point x="-78" y="693"/>
      <point x="-88" y="677"/>
      <point x="-100" y="662" type="curve" smooth="yes"/>
      <point x="-114" y="645"/>
      <point x="-141" y="643"/>
      <point x="-157" y="657" type="curve" smooth="yes"/>
      <point x="-174" y="671"/>
      <point x="-178" y="698"/>
    </contour>
  </outline>
</glyph>
<glyph name="twosuperior" format="1">
  <advance width="355"/>
  <outline>
    <contour>
      <point x="65" y="312" type="curve" smooth="yes"/>
      <point x="154" y="391" type="line" smooth="yes"/>
      <point x="196" y="429"/>
      <point x="213" y="443"/>
      <point x="213" y="467" type="curve" smooth="yes"/>
      <point x="213" y="479"/>
      <point x="198" y="486"/>
      <point x="181" y="486" type="curve" smooth="yes"/>
      <point x="159" y="486"/>
      <point x="142" y="479"/>
      <point x="124" y="468" type="curve" smooth="yes"/>
      <point x="106" y="458"/>
      <point x="82" y="464"/>
      <point x="71" y="481" type="curve" smooth="yes"/>
      <point x="61" y="499"/>
      <point x="67" y="523"/>
      <point x="84" y="534" type="curve" smooth="yes"/>
      <point x="116" y="553"/>
      <point x="145" y="562"/>
      <point x="181" y="562" type="curve" smooth="yes"/>
      <point x="266" y="562"/>
      <point x="299" y="513"/>
      <point x="299" y="467" type="curve" smooth="yes"/>
      <point x="299" y="427"/>
      <point x="280" y="401"/>
      <point x="206" y="333" type="curve" smooth="yes"/>
      <point x="117" y="254" type="line" smooth="yes"/>
      <point x="101" y="240"/>
      <point x="76" y="242"/>
      <point x="63" y="258" type="curve" smooth="yes"/>
      <point x="49" y="273"/>
      <point x="50" y="298"/>
    </contour>
    <contour>
      <point x="275" y="240" type="curve" smooth="yes"/>
      <point x="86" y="240" type="line" smooth="yes"/>
      <point x="65" y="240"/>
      <point x="48" y="257"/>
      <point x="48" y="278" type="curve" smooth="yes"/>
      <point x="48" y="299"/>
      <point x="65" y="316"/>
      <point x="86" y="316" type="curve" smooth="yes"/>
      <point x="275" y="316" type="line" smooth="yes"/>
      <point x="296" y="316"/>
      <point x="313" y="299"/>
      <point x="313" y="278" type="curve" smooth="yes"/>
      <point x="313" y="257"/>
      <point x="296" y="240"/>
    </contour>
  </outline>
</glyph>
<glyph name="uni2113" format="1">
  <advance width="362"/>
  <outline>
    <contour>
      <point x="39" y="174" type="curve" smooth="yes"/>
      <point x="116" y="201"/>
      <point x="160" y="224"/>
      <point x="190" y="253" type="curve" smooth="yes"/>
      <point x="214" y="275"/>
      <point x="233" y="332"/>
      <point x="233" y="382" type="curve" smooth="yes"/>
      <point x="233" y="414"/>
      <point x="241" y="489"/>
      <point x="195" y="489" type="curve" smooth="yes"/>
      <point x="149" y="489"/>
      <point x="161" y="427"/>
      <point x="161" y="396" type="curve" smooth="yes"/>
      <point x="161" y="111" type="line" smooth="yes"/>
      <point x="161" y="92"/>
      <point x="173" y="77"/>
      <point x="195" y="77" type="curve" smooth="yes"/>
      <point x="218" y="77"/>
      <point x="241" y="84"/>
      <point x="263" y="97" type="curve" smooth="yes"/>
      <point x="283" y="109"/>
      <point x="311" y="102"/>
      <point x="323" y="81" type="curve" smooth="yes"/>
      <point x="335" y="61"/>
      <point x="328" y="33"/>
      <point x="307" y="21" type="curve" smooth="yes"/>
      <point x="271" y="0"/>
      <point x="232" y="-11"/>
      <point x="195" y="-11" type="curve" smooth="yes"/>
      <point x="117" y="-11"/>
      <point x="63" y="38"/>
      <point x="63" y="111" type="curve"/>
      <point x="63" y="396" type="line" smooth="yes"/>
      <point x="63" y="515"/>
      <point x="105" y="577"/>
      <point x="195" y="577" type="curve" smooth="yes"/>
      <point x="279" y="577"/>
      <point x="331" y="498"/>
      <point x="331" y="382" type="curve" smooth="yes"/>
      <point x="331" y="304"/>
      <point x="288" y="223"/>
      <point x="252" y="187" type="curve" smooth="yes"/>
      <point x="214" y="152"/>
      <point x="162" y="123"/>
      <point x="67" y="90" type="curve" smooth="yes"/>
      <point x="45" y="83"/>
      <point x="19" y="95"/>
      <point x="11" y="118" type="curve" smooth="yes"/>
      <point x="4" y="140"/>
      <point x="16" y="166"/>
    </contour>
  </outline>
</glyph>
